<?xml version="1.0" encoding="utf-8"?>
<!-- Generator: Adobe Illustrator 25.4.1, SVG Export Plug-In . SVG Version: 6.00 Build 0)  -->
<svg version="1.1" id="Layer_1" xmlns="http://www.w3.org/2000/svg" xmlns:xlink="http://www.w3.org/1999/xlink" x="0px" y="0px"
	 viewBox="0 0 856.3 800" style="enable-background:new 0 0 856.3 800;" xml:space="preserve">
<style type="text/css">
	.st0{fill:#FFF2C7;}
	.st1{fill:#FFFFFF;}
	.st2{fill:#FDCB26;}
	.st3{display:none;enable-background:new    ;}
	.st4{display:inline;}
	.st5{font-family:'HelveticaNeue';}
	.st6{font-size:14px;}
</style>
<rect class="st0" width="856.3" height="800"/>
<g>
	<circle class="st1" cx="312.6" cy="410.4" r="152.9"/>
	<circle class="st1" cx="601.8" cy="410.4" r="133.7"/>
	<circle class="st1" cx="473.7" cy="612.1" r="102.6"/>
	<circle class="st1" cx="472.9" cy="224.3" r="90"/>
	<circle class="st1" cx="307.2" cy="174.6" r="80.2"/>
	<circle class="st1" cx="294.4" cy="641.8" r="76.5"/>
	<circle class="st1" cx="636.3" cy="205.1" r="71.8"/>
	<circle class="st1" cx="645.5" cy="608.6" r="66.5"/>
	<circle class="st1" cx="179.1" cy="240" r="60.8"/>
	<circle class="st1" cx="171.6" cy="574.5" r="60.7"/>
	<circle class="st1" cx="745.9" cy="279.7" r="58.1"/>
	<circle class="st1" cx="416.4" cy="82" r="60.3"/>
	<circle class="st1" cx="750.3" cy="536.1" r="58.2"/>
	<ellipse transform="matrix(0.1735 -0.9848 0.9848 0.1735 357.9362 634.5079)" class="st1" cx="557" cy="104" rx="54.1" ry="54.1"/>
	<circle class="st1" cx="381.6" cy="739.1" r="51.6"/>
	<circle class="st1" cx="586.7" cy="692.9" r="33.6"/>
	<circle class="st1" cx="143.1" cy="329" r="32.4"/>
	<circle class="st1" cx="140.4" cy="484.5" r="31.8"/>
	<circle class="st1" cx="766.9" cy="371.4" r="33.2"/>
	
		<ellipse transform="matrix(0.2425 -0.9701 0.9701 0.2425 341.9944 512.8183)" class="st1" cx="499.4" cy="37.4" rx="31.2" ry="31.2"/>
	<circle class="st1" cx="764.2" cy="446.3" r="30"/>
	<circle class="st1" cx="105" cy="406.5" r="51.2"/>
	
		<ellipse transform="matrix(0.9239 -0.3827 0.3827 0.9239 -239.5373 260.1649)" class="st1" cx="534.2" cy="732.2" rx="29.1" ry="29.1"/>
	<circle class="st1" cx="816.6" cy="413.4" r="29.1"/>
	<circle pointer-events="none" class="st2" cx="280.7" cy="410.8" r="31.4"/>
	<circle pointer-events="none" class="st2" cx="344.9" cy="410.8" r="30.1"/>
	<circle pointer-events="none" class="st2" cx="314.1" cy="465.2" r="29.7"/>
	<circle pointer-events="none" class="st2" cx="314.1" cy="356.4" r="29.7"/>
	
		<ellipse pointer-events="none" transform="matrix(0.1602 -0.9871 0.9871 0.1602 -137.4442 546.2537)" class="st2" cx="252.3" cy="353.9" rx="29.4" ry="29.4"/>
	
		<ellipse pointer-events="none" transform="matrix(0.1602 -0.9871 0.9871 0.1602 -248.96 641.9825)" class="st2" cx="252.8" cy="467.3" rx="28.9" ry="28.9"/>
	<circle pointer-events="none" class="st2" cx="375.3" cy="357.2" r="28.7"/>
	<circle pointer-events="none" class="st2" cx="374.6" cy="463.9" r="28"/>
	<circle pointer-events="none" class="st2" cx="220.2" cy="418.7" r="26.9"/>
	<circle pointer-events="none" class="st2" cx="195.9" cy="368.5" r="26.2"/>
	<circle pointer-events="none" class="st2" cx="403.3" cy="415.3" r="25.7"/>
	<circle pointer-events="none" class="st2" cx="430.6" cy="369.2" r="25.1"/>
	<circle pointer-events="none" class="st2" cx="284.3" cy="512.9" r="23.8"/>
	<circle pointer-events="none" class="st2" cx="284.9" cy="308.8" r="23.4"/>
	<circle pointer-events="none" class="st2" cx="346.9" cy="510.2" r="23.2"/>
	<circle pointer-events="none" class="st2" cx="346.2" cy="311" r="23.1"/>
	<circle pointer-events="none" class="st2" cx="317.4" cy="542.6" r="17.9"/>
	<circle pointer-events="none" class="st2" cx="316.7" cy="281.6" r="15.8"/>
	<circle pointer-events="none" class="st2" cx="418.3" cy="455" r="14"/>
	<circle pointer-events="none" class="st2" cx="210.5" cy="458.8" r="11.6"/>
	<circle pointer-events="none" class="st2" cx="380.4" cy="502.6" r="8.4"/>
	
		<ellipse pointer-events="none" transform="matrix(0.9871 -0.1602 0.1602 0.9871 -77.9659 46.6231)" class="st2" cx="250.2" cy="506.9" rx="8" ry="8"/>
	
		<ellipse pointer-events="none" transform="matrix(0.1602 -0.9871 0.9871 0.1602 -98.8241 514.2462)" class="st2" cx="252.8" cy="315.2" rx="6.5" ry="6.5"/>
	<polygon pointer-events="none" class="st2" points="366.5,327 366.5,327 366.5,327 	"/>
	<polygon pointer-events="none" class="st2" points="368.1,324.8 368.1,324.8 368.1,324.8 	"/>
	<polygon pointer-events="none" class="st2" points="370.5,326.1 370.5,326.1 370.5,326.1 	"/>
	<polygon pointer-events="none" class="st2" points="220.2,352.9 220.2,352.9 220.2,352.9 	"/>
	<circle pointer-events="none" class="st2" cx="575.5" cy="382.1" r="30.1"/>
	<circle pointer-events="none" class="st2" cx="638.2" cy="382.1" r="29.9"/>
	<circle pointer-events="none" class="st2" cx="607" cy="436" r="29.6"/>
	<circle pointer-events="none" class="st2" cx="607" cy="329.1" r="28.9"/>
	<circle pointer-events="none" class="st2" cx="548" cy="328.4" r="27.5"/>
	<circle pointer-events="none" class="st2" cx="665.9" cy="328.9" r="27.3"/>
	<circle pointer-events="none" class="st2" cx="547.6" cy="435.1" r="27.1"/>
	<circle pointer-events="none" class="st2" cx="666.1" cy="434.5" r="26.8"/>
	
		<ellipse pointer-events="none" transform="matrix(0.1602 -0.9871 0.9871 0.1602 63.8159 825.6065)" class="st2" cx="517.1" cy="375.3" rx="25.9" ry="25.9"/>
	<circle pointer-events="none" class="st2" cx="695.3" cy="375.2" r="24.8"/>
	
		<ellipse pointer-events="none" transform="matrix(0.1602 -0.9871 0.9871 0.1602 -1.4923 844.246)" class="st2" cx="495.4" cy="423" rx="23.7" ry="23.7"/>
	<circle pointer-events="none" class="st2" cx="712.8" cy="419" r="19.7"/>
	<circle pointer-events="none" class="st2" cx="576.8" cy="296.7" r="12.7"/>
	<circle pointer-events="none" class="st2" cx="637.6" cy="297.8" r="12.1"/>
	<circle pointer-events="none" class="st2" cx="639.3" cy="463.1" r="9.8"/>
	<circle pointer-events="none" class="st2" cx="575.3" cy="460.9" r="8"/>
	<polygon pointer-events="none" class="st2" points="586,460.6 586,460.6 586,460.6 	"/>
	<polygon pointer-events="none" class="st2" points="623.3,302 623.3,302 623.3,302 	"/>
	<polygon pointer-events="none" class="st2" points="626.8,461.5 626.8,461.5 626.8,461.5 	"/>
	<circle pointer-events="none" class="st2" cx="448.8" cy="612.9" r="30"/>
	<circle pointer-events="none" class="st2" cx="508.8" cy="612.9" r="27.3"/>
	<circle pointer-events="none" class="st2" cx="481.4" cy="663" r="27"/>
	<circle pointer-events="none" class="st2" cx="481.3" cy="564.9" r="25.3"/>
	<circle pointer-events="none" class="st2" cx="429" cy="559.1" r="24.6"/>
	<circle pointer-events="none" class="st2" cx="427.6" cy="665.7" r="24.2"/>
	<circle pointer-events="none" class="st2" cx="533.2" cy="564.9" r="23.8"/>
	<circle pointer-events="none" class="st2" cx="534.1" cy="659.6" r="23"/>
	<circle pointer-events="none" class="st2" cx="397.1" cy="596.2" r="21.6"/>
	<circle pointer-events="none" class="st2" cx="400.7" cy="634.6" r="14.2"/>
	<circle pointer-events="none" class="st2" cx="550.7" cy="600.9" r="13.5"/>
	<circle pointer-events="none" class="st2" cx="534" cy="632.2" r="1.7"/>
	<polygon pointer-events="none" class="st2" points="455.7,553.4 455.7,553.4 455.7,553.4 	"/>
	<polygon pointer-events="none" class="st2" points="534.9,627.9 534.9,627.9 534.9,627.9 	"/>
	<circle pointer-events="none" class="st2" cx="445" cy="227.6" r="31.3"/>
	<circle pointer-events="none" class="st2" cx="509.8" cy="227.6" r="30.8"/>
	<circle pointer-events="none" class="st2" cx="477.9" cy="281.9" r="29.5"/>
	<circle pointer-events="none" class="st2" cx="477.9" cy="175.1" r="27.9"/>
	<circle pointer-events="none" class="st2" cx="426.6" cy="176.2" r="20.6"/>
	
		<ellipse pointer-events="none" transform="matrix(0.1602 -0.9871 0.9871 0.1602 264.8728 669.5206)" class="st2" cx="525.9" cy="179.1" rx="17.6" ry="17.6"/>
	<circle pointer-events="none" class="st2" cx="443.2" cy="267.1" r="5.5"/>
	<polygon pointer-events="none" class="st2" points="501.6,260.2 501.6,260.2 501.6,260.2 	"/>
	<circle pointer-events="none" class="st2" cx="295.4" cy="175.1" r="29.4"/>
	<circle pointer-events="none" class="st2" cx="356.1" cy="175.1" r="28.6"/>
	<circle pointer-events="none" class="st2" cx="326.5" cy="223.3" r="25.2"/>
	<circle pointer-events="none" class="st2" cx="326.5" cy="127.6" r="24.7"/>
	<circle pointer-events="none" class="st2" cx="278.7" cy="125.2" r="20.5"/>
	<circle pointer-events="none" class="st2" cx="272.1" cy="638.8" r="30.8"/>
	<circle pointer-events="none" class="st2" cx="332.5" cy="638.8" r="26.9"/>
	<circle pointer-events="none" class="st2" cx="306.1" cy="687.9" r="26.1"/>
	<circle pointer-events="none" class="st2" cx="305.9" cy="592.9" r="23.5"/>
	<circle pointer-events="none" class="st2" cx="264.8" cy="591" r="14.9"/>
	<circle pointer-events="none" class="st2" cx="262.3" cy="686.3" r="14.9"/>
	<circle pointer-events="none" class="st2" cx="340.9" cy="600.6" r="9.6"/>
	<polygon pointer-events="none" class="st2" points="326.9,667.9 326.9,667.9 326.9,667.9 	"/>
	<polygon pointer-events="none" class="st2" points="329.6,668.3 329.6,668.3 329.6,668.3 	"/>
	<polygon pointer-events="none" class="st2" points="329.5,671 329.5,671 329.5,671 	"/>
	<circle pointer-events="none" class="st2" cx="613.3" cy="201.4" r="30.6"/>
	<circle pointer-events="none" class="st2" cx="675.9" cy="201.4" r="29.2"/>
	<circle pointer-events="none" class="st2" cx="645.8" cy="248.9" r="24.2"/>
	<circle pointer-events="none" class="st2" cx="645.7" cy="161.9" r="17.8"/>
	<circle pointer-events="none" class="st2" cx="612.5" cy="154.8" r="13.4"/>
	<circle pointer-events="none" class="st2" cx="615.7" cy="592.7" r="30"/>
	<circle pointer-events="none" class="st2" cx="677" cy="592.7" r="28.6"/>
	<circle pointer-events="none" class="st2" cx="647.7" cy="644.3" r="28"/>
	<polygon pointer-events="none" class="st2" points="647.1,583.5 647.1,583.5 647.1,583.5 	"/>
	<polygon pointer-events="none" class="st2" points="646.2,580.9 646.2,580.9 646.2,580.9 	"/>
	<circle pointer-events="none" class="st2" cx="151" cy="240" r="30"/>
	<circle pointer-events="none" class="st2" cx="210.5" cy="240" r="26.7"/>
	<circle pointer-events="none" class="st2" cx="183.5" cy="278.8" r="17.9"/>
	<circle pointer-events="none" class="st2" cx="144.4" cy="574.5" r="30.8"/>
	<circle pointer-events="none" class="st2" cx="203.7" cy="574.5" r="25.9"/>
	<circle pointer-events="none" class="st2" cx="724.2" cy="277.8" r="28.5"/>
	<circle pointer-events="none" class="st2" cx="778.3" cy="277.8" r="22.9"/>
	<circle pointer-events="none" class="st2" cx="756.1" cy="315.5" r="18.1"/>
	<circle pointer-events="none" class="st2" cx="755.7" cy="245" r="14.2"/>
	<circle pointer-events="none" class="st2" cx="730.1" cy="237.1" r="9.9"/>
	<circle pointer-events="none" class="st2" cx="729" cy="315" r="6.2"/>
	<circle pointer-events="none" class="st2" cx="776.6" cy="248.1" r="4.1"/>
	<circle pointer-events="none" class="st2" cx="779.5" cy="307.3" r="3.9"/>
	<polygon pointer-events="none" class="st2" points="721.8,246.7 721.8,246.7 721.8,246.7 	"/>
	<polygon pointer-events="none" class="st2" points="722.4,309 722.4,309 722.4,309 	"/>
	<circle pointer-events="none" class="st2" cx="389.3" cy="71.6" r="28.6"/>
	<circle pointer-events="none" class="st2" cx="446.5" cy="71.6" r="25.8"/>
	<circle pointer-events="none" class="st2" cx="420.5" cy="116.2" r="23.1"/>
	<polygon pointer-events="none" class="st2" points="419.4,62.7 419.4,62.7 419.4,62.7 	"/>
	<polygon pointer-events="none" class="st2" points="418.5,60.1 418.5,60.1 418.5,60.1 	"/>
	<circle pointer-events="none" class="st2" cx="723" cy="536.1" r="28.2"/>
	<circle pointer-events="none" class="st2" cx="779.8" cy="536.1" r="25.9"/>
	<circle pointer-events="none" class="st2" cx="533.5" cy="104" r="27.8"/>
	<circle pointer-events="none" class="st2" cx="586.2" cy="104" r="22.1"/>
	<circle pointer-events="none" class="st2" cx="563.7" cy="127.5" r="7.7"/>
	<circle pointer-events="none" class="st2" cx="360" cy="739.1" r="27.2"/>
	<circle pointer-events="none" class="st2" cx="410.2" cy="739.1" r="20.3"/>
	<circle pointer-events="none" class="st2" cx="390.4" cy="767.1" r="11.3"/>
	<circle pointer-events="none" class="st2" cx="389.8" cy="717.3" r="6.9"/>
	<polygon pointer-events="none" class="st2" points="380.1,716.9 380.1,716.9 380.1,716.9 	"/>
	<polygon pointer-events="none" class="st2" points="376.7,764 376.7,764 376.7,764 	"/>
	<circle pointer-events="none" class="st2" cx="586.7" cy="692.9" r="30.9"/>
	<circle pointer-events="none" class="st2" cx="143.1" cy="329" r="29.7"/>
	
		<ellipse pointer-events="none" transform="matrix(4.531438e-02 -0.999 0.999 4.531438e-02 -349.9644 602.801)" class="st2" cx="140.4" cy="484.5" rx="29.1" ry="29.1"/>
	<circle pointer-events="none" class="st2" cx="765.5" cy="371.4" r="29.2"/>
	<polygon pointer-events="none" class="st2" points="797.4,371.4 797.4,371.4 797.4,371.4 	"/>
	
		<ellipse pointer-events="none" transform="matrix(0.1602 -0.9871 0.9871 0.1602 382.4879 524.3607)" class="st2" cx="499.4" cy="37.4" rx="28.5" ry="28.5"/>
	<circle pointer-events="none" class="st2" cx="764.2" cy="446.3" r="27.2"/>
	
		<ellipse pointer-events="none" transform="matrix(3.327794e-02 -0.9994 0.9994 3.327794e-02 -319.3734 471.4156)" class="st2" cx="84" cy="400.8" rx="26.7" ry="26.7"/>
	<circle pointer-events="none" class="st2" cx="133.2" cy="400.8" r="19.7"/>
	<circle pointer-events="none" class="st2" cx="114.8" cy="436.1" r="17.3"/>
	<circle pointer-events="none" class="st2" cx="113.8" cy="373.8" r="10.8"/>
	<polygon pointer-events="none" class="st2" points="100.6,376.5 100.6,376.5 100.6,376.5 	"/>
	<polygon pointer-events="none" class="st2" points="96.7,427.4 96.7,427.4 96.7,427.4 	"/>
	<polygon pointer-events="none" class="st2" points="126.1,379.5 126.1,379.5 126.1,379.5 	"/>
	<polygon pointer-events="none" class="st2" points="98.3,375.1 98.3,375.1 98.3,375.1 	"/>
	
		<ellipse pointer-events="none" transform="matrix(0.9239 -0.3827 0.3827 0.9239 -239.5372 260.1649)" class="st2" cx="534.2" cy="732.2" rx="26.4" ry="26.4"/>
	<circle pointer-events="none" class="st2" cx="816.6" cy="413.4" r="26.4"/>
</g>
<g pointer-events="none">
	<g class="st3">
		<text transform="matrix(1 0 0 1 435.3288 399.9999)" class="st4 st5 st6">flare</text>
	</g>
	<text transform="matrix(1 0 0 1 288.3099 410.4064)" class="st5 st6">Physics</text>
	<text transform="matrix(1 0 0 1 570.0505 410.4064)" class="st5 st6">Chemistry</text>
	<text transform="matrix(1 0 0 1 412.6482 612.1204)" class="st5 st6">Biological Sciences</text>
	<text transform="matrix(1 0 0 1 422.5669 224.2889)" class="st5 st6">Nuclear Physics</text>
	<text transform="matrix(1 0 0 1 262.1697 174.6418)" class="st5 st6">Bioinformatics</text>
	<text transform="matrix(1 0 0 1 260.5121 641.7639)" class="st5 st6">Astronomy</text>
	<text transform="matrix(1 0 0 1 572.0229 205.1387)" class="st5 st6">High Energy Physics</text>
	<text transform="matrix(1 0 0 1 605.1627 608.5652)" class="st5 st6">Astrophysics</text>
	<text transform="matrix(1 0 0 1 142.1739 240.0236)" class="st5 st6">Engineering</text>
	<text transform="matrix(1 0 0 1 130.7853 574.5491)" class="st5 st6">Biochemistry</text>
	<text transform="matrix(1 0 0 1 687.5295 279.7224)" class="st5 st6">Computer Science</text>
	<text transform="matrix(1 0 0 1 304.8126 81.9946)" class="st5 st6">Biological and Biomedical Sciences</text>
	<text transform="matrix(1 0 0 1 684.7206 536.1216)" class="st5 st6">Gravitational Physics</text>
	<text transform="matrix(1 0 0 1 501.5073 103.9525)" class="st5 st6">Materials Science</text>
	<text transform="matrix(1 0 0 1 269.1758 751.6124)" class="st5 st6">Computer and Information Sciences</text>
	<text transform="matrix(1 0 0 1 526.9011 692.9495)" class="st5 st6">Chemical Sciences</text>
	<text transform="matrix(1 0 0 1 -0.6021 328.9678)" class="st5 st6">Computer Architecture/Computer Engineering</text>
	<text transform="matrix(1 0 0 1 111.6626 484.5377)" class="st5 st6">Statistics</text>
	<text transform="matrix(1 0 0 1 677.0359 371.4141)" class="st5 st6">Astronomy and Astrophysics</text>
	<text transform="matrix(1 0 0 1 369.9289 37.4324)" class="st5 st6">Life Sciences - Biological and Biomedical</text>
	<text transform="matrix(1 0 0 1 700.3408 446.3328)" class="st5 st6">Evolutionary Biology</text>
	<text transform="matrix(1 0 0 1 43.1348 406.4915)" class="st5 st6">Computer Sciences</text>
	<text transform="matrix(1 0 0 1 465.2701 732.1506)" class="st5 st6">Evolutionary Sciences</text>
	<text transform="matrix(1 0 0 1 788.8429 413.4462)" class="st5 st6">Genetics</text>
	<g class="st3">
		<text transform="matrix(1 0 0 1 187.5166 410.7783)" class="st4 st5 st6">University of Hawaii at Manoa</text>
	</g>
	<g class="st3">
		<text transform="matrix(1 0 0 1 265.2181 410.7783)" class="st4 st5 st6">Michigan State University</text>
	</g>
	<g class="st3">
		<text transform="matrix(1 0 0 1 176.3399 465.2028)" class="st4 st5 st6">Rutgers, The State University of New Jersey</text>
	</g>
	<g class="st3">
		<text transform="matrix(1 0 0 1 250.4824 356.3829)" class="st4 st5 st6">Lancaster University</text>
	</g>
	<g class="st3">
		<text transform="matrix(1 0 0 1 145.5227 353.895)" class="st4 st5 st6">University of California, San Diego</text>
	</g>
	<g class="st3">
		<text transform="matrix(1 0 0 1 151.3531 467.3016)" class="st4 st5 st6">University of California, Berkeley</text>
	</g>
	<g class="st3">
		<text transform="matrix(1 0 0 1 288.1695 357.2249)" class="st4 st5 st6">University of South Carolina</text>
	</g>
	<g class="st3">
		<text transform="matrix(1 0 0 1 254.6336 463.8904)" class="st4 st5 st6">Massachusetts Institute of Technology</text>
	</g>
	<g class="st3">
		<text transform="matrix(1 0 0 1 147.8274 418.7347)" class="st4 st5 st6">Wayne State University</text>
	</g>
	<g class="st3">
		<text transform="matrix(1 0 0 1 94.7404 368.4863)" class="st4 st5 st6">Brookhaven National Laboratory</text>
	</g>
	<g class="st3">
		<text transform="matrix(1 0 0 1 321.9138 415.3118)" class="st4 st5 st6">Colorado School of Mines</text>
	</g>
	<g class="st3">
		<text transform="matrix(1 0 0 1 323.7844 369.1816)" class="st4 st5 st6">University of California, San Diego</text>
	</g>
	<g class="st3">
		<text transform="matrix(1 0 0 1 203.2918 512.9446)" class="st4 st5 st6">Louisiana State University</text>
	</g>
	<g class="st3">
		<text transform="matrix(1 0 0 1 178.0475 308.8279)" class="st4 st5 st6">University of California, San Diego</text>
	</g>
	<g class="st3">
		<text transform="matrix(1 0 0 1 281.1811 510.2244)" class="st4 st5 st6">Kent State University</text>
	</g>
	<g class="st3">
		<text transform="matrix(1 0 0 1 267.3916 311.0109)" class="st4 st5 st6">University of Connecticut</text>
	</g>
	<g class="st3">
		<text transform="matrix(1 0 0 1 214.709 542.6117)" class="st4 st5 st6">University of Wisconsin-Madison</text>
	</g>
	<g class="st3">
		<text transform="matrix(1 0 0 1 244.3929 281.5867)" class="st4 st5 st6">Wayne State University</text>
	</g>
	<g class="st3">
		<text transform="matrix(1 0 0 1 328.2641 454.9823)" class="st4 st5 st6">New Mexico State University</text>
	</g>
	<g class="st3">
		<text transform="matrix(1 0 0 1 137.8771 458.8335)" class="st4 st5 st6">Florida State University</text>
	</g>
	<g class="st3">
		<text transform="matrix(1 0 0 1 298.9936 502.5641)" class="st4 st5 st6">Colorado School of Mines</text>
	</g>
	<g class="st3">
		<text transform="matrix(1 0 0 1 157.9465 506.8667)" class="st4 st5 st6">Pennsylvania State University</text>
	</g>
	<g class="st3">
		<text transform="matrix(1 0 0 1 197.6144 315.2388)" class="st4 st5 st6">Boston University</text>
	</g>
	<g class="st3">
		<text transform="matrix(1 0 0 1 291.8772 327.0122)" class="st4 st5 st6">Arizona State University</text>
	</g>
	<g class="st3">
		<text transform="matrix(1 0 0 1 304.0578 324.7888)" class="st4 st5 st6">Vanderbilt University</text>
	</g>
	<g class="st3">
		<text transform="matrix(1 0 0 1 301.1055 326.142)" class="st4 st5 st6">University of Michigan</text>
	</g>
	<g class="st3">
		<text transform="matrix(1 0 0 1 147.3959 352.9076)" class="st4 st5 st6">University of Edinburgh</text>
	</g>
	<g class="st3">
		<text transform="matrix(1 0 0 1 478.3267 382.0643)" class="st4 st5 st6">Georgia Institute of Technology</text>
	</g>
	<g class="st3">
		<text transform="matrix(1 0 0 1 565.3115 382.0643)" class="st4 st5 st6">University of Pittsburgh</text>
	</g>
	<g class="st3">
		<text transform="matrix(1 0 0 1 540.1555 435.9618)" class="st4 st5 st6">University of Chicago</text>
	</g>
	<g class="st3">
		<text transform="matrix(1 0 0 1 558.0308 329.0527)" class="st4 st5 st6">Duke University</text>
	</g>
	<g class="st3">
		<text transform="matrix(1 0 0 1 449.8307 328.39)" class="st4 st5 st6">University of California, Merced</text>
	</g>
	<g class="st3">
		<text transform="matrix(1 0 0 1 579.1865 328.9192)" class="st4 st5 st6">University of Central Florida</text>
	</g>
	<g class="st3">
		<text transform="matrix(1 0 0 1 491.0376 435.1256)" class="st4 st5 st6">Arcadia University</text>
	</g>
	<g class="st3">
		<text transform="matrix(1 0 0 1 617.1248 434.5028)" class="st4 st5 st6">Duke University</text>
	</g>
	<g class="st3">
		<text transform="matrix(1 0 0 1 434.5358 375.3179)" class="st4 st5 st6">University of North Dakota</text>
	</g>
	<g class="st3">
		<text transform="matrix(1 0 0 1 632.5112 375.1898)" class="st4 st5 st6">Columbia University</text>
	</g>
	<g class="st3">
		<text transform="matrix(1 0 0 1 365.5939 422.9796)" class="st4 st5 st6">University of North Carolina at Chapel Hill</text>
	</g>
	<g class="st3">
		<text transform="matrix(1 0 0 1 688.0139 419.0054)" class="st4 st5 st6">Fairfield</text>
	</g>
	<g class="st3">
		<text transform="matrix(1 0 0 1 502.5635 296.7064)" class="st4 st5 st6">Kansas State University</text>
	</g>
	<g class="st3">
		<text transform="matrix(1 0 0 1 545.5154 297.7993)" class="st4 st5 st6">Illinois Institute of Technology</text>
	</g>
	<g class="st3">
		<text transform="matrix(1 0 0 1 536.5779 463.1265)" class="st4 st5 st6">University of Wisconsin-Madison</text>
	</g>
	<g class="st3">
		<text transform="matrix(1 0 0 1 500.3823 460.8987)" class="st4 st5 st6">CUNY Brooklyn College</text>
	</g>
	<g class="st3">
		<text transform="matrix(1 0 0 1 504.4938 460.562)" class="st4 st5 st6">Loyola University Chicago</text>
	</g>
	<g class="st3">
		<text transform="matrix(1 0 0 1 514.3323 302.0027)" class="st4 st5 st6">University of Wisconsin-Milwaukee</text>
	</g>
	<g class="st3">
		<text transform="matrix(1 0 0 1 529.6874 461.5417)" class="st4 st5 st6">Georgia Institute of Technology</text>
	</g>
	<g class="st3">
		<text transform="matrix(1 0 0 1 366.8519 612.9167)" class="st4 st5 st6">University of Pennsylvania</text>
	</g>
	<g class="st3">
		<text transform="matrix(1 0 0 1 451.9241 612.9167)" class="st4 st5 st6">University of Tulsa</text>
	</g>
	<g class="st3">
		<text transform="matrix(1 0 0 1 421.6492 662.9695)" class="st4 st5 st6">University of Guam</text>
	</g>
	<g class="st3">
		<text transform="matrix(1 0 0 1 425.4655 564.853)" class="st4 st5 st6">Utrecht University</text>
	</g>
	<g class="st3">
		<text transform="matrix(1 0 0 1 373.1209 559.0951)" class="st4 st5 st6">Utrecht University</text>
	</g>
	<g class="st3">
		<text transform="matrix(1 0 0 1 372.4841 665.7169)" class="st4 st5 st6">Cornell University</text>
	</g>
	<g class="st3">
		<text transform="matrix(1 0 0 1 463.8748 564.863)" class="st4 st5 st6">University of Michigan</text>
	</g>
	<g class="st3">
		<text transform="matrix(1 0 0 1 418.8246 659.6052)" class="st4 st5 st6">American Museum of Natural History</text>
	</g>
	<g class="st3">
		<text transform="matrix(1 0 0 1 220.5079 596.1992)" class="st4 st5 st6">University of Maryland Center for Environmental Science</text>
	</g>
	<g class="st3">
		<text transform="matrix(1 0 0 1 336.416 634.5854)" class="st4 st5 st6">University of Arizona</text>
	</g>
	<g class="st3">
		<text transform="matrix(1 0 0 1 495.0701 600.9166)" class="st4 st5 st6">Indiana University</text>
	</g>
	<g class="st3">
		<text transform="matrix(1 0 0 1 410.093 632.183)" class="st4 st5 st6">University of Connecticut Health Center</text>
	</g>
	<g class="st3">
		<text transform="matrix(1 0 0 1 353.0575 553.4124)" class="st4 st5 st6">University of Wisconsin-Madison</text>
	</g>
	<g class="st3">
		<text transform="matrix(1 0 0 1 439.467 627.8795)" class="st4 st5 st6">University of Nebraska Omaha</text>
	</g>
	<g class="st3">
		<text transform="matrix(1 0 0 1 402.3356 227.6484)" class="st4 st5 st6">Jefferson Lab</text>
	</g>
	<g class="st3">
		<text transform="matrix(1 0 0 1 437.5106 227.6484)" class="st4 st5 st6">Wayne State University</text>
	</g>
	<g class="st3">
		<text transform="matrix(1 0 0 1 435.2133 281.9395)" class="st4 st5 st6">Jefferson Lab</text>
	</g>
	<g class="st3">
		<text transform="matrix(1 0 0 1 428.8537 175.1334)" class="st4 st5 st6">Duke University</text>
	</g>
	<g class="st3">
		<text transform="matrix(1 0 0 1 360.6232 176.2098)" class="st4 st5 st6">Ohio State University</text>
	</g>
	<g class="st3">
		<text transform="matrix(1 0 0 1 473.5839 179.0939)" class="st4 st5 st6">Canisius College</text>
	</g>
	<g class="st3">
		<text transform="matrix(1 0 0 1 342.1094 267.1296)" class="st4 st5 st6">Brookhaven National Laboratory</text>
	</g>
	<g class="st3">
		<text transform="matrix(1 0 0 1 458.8969 260.1644)" class="st4 st5 st6">Jefferson Lab</text>
	</g>
	<g class="st3">
		<text transform="matrix(1 0 0 1 239.6506 175.1479)" class="st4 st5 st6">University of Utah</text>
	</g>
	<g class="st3">
		<text transform="matrix(1 0 0 1 283.1671 175.1479)" class="st4 st5 st6">University of Pittsburgh</text>
	</g>
	<g class="st3">
		<text transform="matrix(1 0 0 1 230.462 223.2548)" class="st4 st5 st6">University of Nebraska-Lincoln</text>
	</g>
	<g class="st3">
		<text transform="matrix(1 0 0 1 223.8399 127.6443)" class="st4 st5 st6">University of Wisconsin-Madison</text>
	</g>
	<g class="st3">
		<text transform="matrix(1 0 0 1 118.5267 125.2455)" class="st4 st5 st6">National Institute of Allergy and Infectious Diseases</text>
	</g>
	<g class="st3">
		<text transform="matrix(1 0 0 1 207.858 638.8459)" class="st4 st5 st6">University of Arizona</text>
	</g>
	<g class="st3">
		<text transform="matrix(1 0 0 1 276.8145 638.8459)" class="st4 st5 st6">University of Iowa</text>
	</g>
	<g class="st3">
		<text transform="matrix(1 0 0 1 241.7903 687.9106)" class="st4 st5 st6">University of Arizona</text>
	</g>
	<g class="st3">
		<text transform="matrix(1 0 0 1 190.6406 592.8782)" class="st4 st5 st6">American Museum of Natural History</text>
	</g>
	<g class="st3">
		<text transform="matrix(1 0 0 1 140.8262 590.9507)" class="st4 st5 st6">University of Illinois Urbana-Champaign</text>
	</g>
	<g class="st3">
		<text transform="matrix(1 0 0 1 213.306 686.2803)" class="st4 st5 st6">Duke University</text>
	</g>
	<g class="st3">
		<text transform="matrix(1 0 0 1 238.1884 600.5737)" class="st4 st5 st6">University of Wisconsin-Madison</text>
	</g>
	<g class="st3">
		<text transform="matrix(1 0 0 1 262.5966 667.9083)" class="st4 st5 st6">University of Arizona</text>
	</g>
	<g class="st3">
		<text transform="matrix(1 0 0 1 227.2935 668.3054)" class="st4 st5 st6">California Institute of Technology</text>
	</g>
	<g class="st3">
		<text transform="matrix(1 0 0 1 252.2194 671.0251)" class="st4 st5 st6">Chicago State University</text>
	</g>
	<g class="st3">
		<text transform="matrix(1 0 0 1 586.2529 201.4167)" class="st4 st5 st6">Fermilab</text>
	</g>
	<g class="st3">
		<text transform="matrix(1 0 0 1 574.7444 201.4167)" class="st4 st5 st6">Brookhaven National Laboratory</text>
	</g>
	<g class="st3">
		<text transform="matrix(1 0 0 1 576.4407 248.9006)" class="st4 st5 st6">University of Michigan</text>
	</g>
	<g class="st3">
		<text transform="matrix(1 0 0 1 603.0034 161.8613)" class="st4 st5 st6">Jefferson Lab</text>
	</g>
	<g class="st3">
		<text transform="matrix(1 0 0 1 538.1096 154.7883)" class="st4 st5 st6">Wichita State University</text>
	</g>
	<g class="st3">
		<text transform="matrix(1 0 0 1 548.7786 592.6859)" class="st4 st5 st6">University of Chicago</text>
	</g>
	<g class="st3">
		<text transform="matrix(1 0 0 1 574.2822 592.6859)" class="st4 st5 st6">University of Wisconsin-Madison</text>
	</g>
	<g class="st3">
		<text transform="matrix(1 0 0 1 580.864 644.282)" class="st4 st5 st6">University of Chicago</text>
	</g>
	<g class="st3">
		<text transform="matrix(1 0 0 1 585.2463 583.4556)" class="st4 st5 st6">Syracuse University</text>
	</g>
	<g class="st3">
		<text transform="matrix(1 0 0 1 549.0432 580.879)" class="st4 st5 st6">Georgia Institute of Technology</text>
	</g>
	<g class="st3">
		<text transform="matrix(1 0 0 1 60.9601 240.0236)" class="st4 st5 st6">New Mexico State University</text>
	</g>
	<g class="st3">
		<text transform="matrix(1 0 0 1 150.8611 240.0236)" class="st4 st5 st6">Stanford University</text>
	</g>
	<g class="st3">
		<text transform="matrix(1 0 0 1 89.6331 278.8401)" class="st4 st5 st6">University of Colorado Denver</text>
	</g>
	<g class="st3">
		<text transform="matrix(1 0 0 1 34.5278 574.5491)" class="st4 st5 st6">Folding@Home Consortium (FAHC)</text>
	</g>
	<g class="st3">
		<text transform="matrix(1 0 0 1 128.684 574.5491)" class="st4 st5 st6">Harvard Medical School</text>
	</g>
	<g class="st3">
		<text transform="matrix(1 0 0 1 619.6011 277.8298)" class="st4 st5 st6">Rochester Institute of Technology</text>
	</g>
	<g class="st3">
		<text transform="matrix(1 0 0 1 681.1816 277.8298)" class="st4 st5 st6">Georgia Institute of Technology</text>
	</g>
	<g class="st3">
		<text transform="matrix(1 0 0 1 653.4701 315.5231)" class="st4 st5 st6">University of Wisconsin-Madison</text>
	</g>
	<g class="st3">
		<text transform="matrix(1 0 0 1 658.5775 245.0369)" class="st4 st5 st6">Georgia Institute of Technology</text>
	</g>
	<g class="st3">
		<text transform="matrix(1 0 0 1 663.1816 237.0825)" class="st4 st5 st6">University of Chicago</text>
	</g>
	<g class="st3">
		<text transform="matrix(1 0 0 1 638.9558 315.0076)" class="st4 st5 st6">New Mexico State University</text>
	</g>
	<g class="st3">
		<text transform="matrix(1 0 0 1 709.7147 248.1498)" class="st4 st5 st6">University of Chicago</text>
	</g>
	<g class="st3">
		<text transform="matrix(1 0 0 1 672.7402 307.3235)" class="st4 st5 st6">University of California, San Diego</text>
	</g>
	<g class="st3">
		<text transform="matrix(1 0 0 1 648.2106 246.6749)" class="st4 st5 st6">Northeastern University</text>
	</g>
	<g class="st3">
		<text transform="matrix(1 0 0 1 656.6375 309.0209)" class="st4 st5 st6">Kent State University</text>
	</g>
	<g class="st3">
		<text transform="matrix(1 0 0 1 269.4147 71.6068)" class="st4 st5 st6">Massachusetts Institute of Technology</text>
	</g>
	<g class="st3">
		<text transform="matrix(1 0 0 1 399.8035 71.6068)" class="st4 st5 st6">Rice University</text>
	</g>
	<g class="st3">
		<text transform="matrix(1 0 0 1 301.3679 116.2385)" class="st4 st5 st6">University of California, San Francisco</text>
	</g>
	<g class="st3">
		<text transform="matrix(1 0 0 1 289.8341 62.6973)" class="st4 st5 st6">The University of Alabama at Birmingham</text>
	</g>
	<g class="st3">
		<text transform="matrix(1 0 0 1 309.3239 60.1248)" class="st4 st5 st6">New Jersey Institute of Technology</text>
	</g>
	<g class="st3">
		<text transform="matrix(1 0 0 1 634.873 536.1216)" class="st4 st5 st6">University of Texas at Austin</text>
	</g>
	<g class="st3">
		<text transform="matrix(1 0 0 1 710.4835 536.1216)" class="st4 st5 st6">University of Michigan</text>
	</g>
	<g class="st3">
		<text transform="matrix(1 0 0 1 441.844 103.9525)" class="st4 st5 st6">University of California, Davis</text>
	</g>
	<g class="st3">
		<text transform="matrix(1 0 0 1 493.8839 103.9525)" class="st4 st5 st6">Pennsylvania State University</text>
	</g>
	<g class="st3">
		<text transform="matrix(1 0 0 1 467.2123 127.5143)" class="st4 st5 st6">North Carolina State University</text>
	</g>
	<g class="st3">
		<text transform="matrix(1 0 0 1 267.857 739.1417)" class="st4 st5 st6">University of Texas at El Paso</text>
	</g>
	<g class="st3">
		<text transform="matrix(1 0 0 1 291.8629 739.1417)" class="st4 st5 st6">Southwest Oklahoma State University</text>
	</g>
	<g class="st3">
		<text transform="matrix(1 0 0 1 306.7504 767.0748)" class="st4 st5 st6">University of South Dakota</text>
	</g>
	<g class="st3">
		<text transform="matrix(1 0 0 1 285.1467 717.3076)" class="st4 st5 st6">Rochester Institute of Technology</text>
	</g>
	<g class="st3">
		<text transform="matrix(1 0 0 1 285.4128 716.9212)" class="st4 st5 st6">George Washington University</text>
	</g>
	<g class="st3">
		<text transform="matrix(1 0 0 1 295.2818 764.0288)" class="st4 st5 st6">Colorado School of Mines</text>
	</g>
	<g class="st3">
		<text transform="matrix(1 0 0 1 502.0239 692.9495)" class="st4 st5 st6">Carnegie-Mellon University</text>
	</g>
	<g class="st3">
		<text transform="matrix(1 0 0 1 95.2193 328.9678)" class="st4 st5 st6">Tufts University</text>
	</g>
	<g class="st3">
		<text transform="matrix(1 0 0 1 51.6384 484.5377)" class="st4 st5 st6">LSU School of Public Health</text>
	</g>
	<g class="st3">
		<text transform="matrix(1 0 0 1 660.9131 371.4141)" class="st4 st5 st6">Rochester Institute of Technology</text>
	</g>
	<g class="st3">
		<text transform="matrix(1 0 0 1 695.1318 371.4141)" class="st4 st5 st6">California Institute of Technology</text>
	</g>
	<g class="st3">
		<text transform="matrix(1 0 0 1 424.7796 37.4324)" class="st4 st5 st6">Arizona State University</text>
	</g>
	<g class="st3">
		<text transform="matrix(1 0 0 1 689.5891 446.3328)" class="st4 st5 st6">Arizona State University</text>
	</g>
	<g class="st3">
		<text transform="matrix(1 0 0 1 29.4325 400.821)" class="st4 st5 st6">Rowan University</text>
	</g>
	<g class="st3">
		<text transform="matrix(1 0 0 1 30.5085 400.821)" class="st4 st5 st6">University of Wisconsin-Madison</text>
	</g>
	<g class="st3">
		<text transform="matrix(1 0 0 1 12.1045 436.0684)" class="st4 st5 st6">University of Wisconsin-Madison</text>
	</g>
	<g class="st3">
		<text transform="matrix(1 0 0 1 46.9575 373.8289)" class="st4 st5 st6">University of Chicago</text>
	</g>
	<g class="st3">
		<text transform="matrix(1 0 0 1 -30.0456 376.4822)" class="st4 st5 st6">California State University, San Bernadino</text>
	</g>
	<g class="st3">
		<text transform="matrix(1 0 0 1 27.3406 427.4153)" class="st4 st5 st6">University of Michigan</text>
	</g>
	<g class="st3">
		<text transform="matrix(1 0 0 1 65.5268 379.5443)" class="st4 st5 st6">Villanova University</text>
	</g>
	<g class="st3">
		<text transform="matrix(1 0 0 1 5.9977 375.0533)" class="st4 st5 st6">Pennsylvania State University</text>
	</g>
	<g class="st3">
		<text transform="matrix(1 0 0 1 466.5723 732.1506)" class="st4 st5 st6">College of Charleston</text>
	</g>
	<g class="st3">
		<text transform="matrix(1 0 0 1 724.9481 413.4462)" class="st4 st5 st6">University of California, Davis</text>
	</g>
</g>
</svg>
