<?xml version="1.0" encoding="utf-8"?>
<!-- Generator: Adobe Illustrator 25.4.1, SVG Export Plug-In . SVG Version: 6.00 Build 0)  -->
<svg version="1.1" id="Layer_1" xmlns="http://www.w3.org/2000/svg" xmlns:xlink="http://www.w3.org/1999/xlink" x="0px" y="0px"
	 viewBox="0 0 1698.9 1357.6" style="enable-background:new 0 0 1698.9 1357.6;" xml:space="preserve">
<style type="text/css">
	.st0{fill:#3A3A3A;}
</style>
<path class="st0" d="M1110,1011.6c0-30-12-58.8-33.4-79.9c-14.7-14.6-32.5-23.8-51.2-28.7l59.2-59.6c44-44.3,43.8-115.9-0.5-160
	c-44.3-44-115.9-43.8-160,0.6l-50.9,51.2c-16-60.2-77.7-96-137.8-80.1c-19.4,5.1-37.1,15.4-51.2,29.7l-70.8,71.3
	c-16-60.2-77.7-96-137.8-80c-19.4,5.1-37,15.4-51.2,29.6l-200,201.2l-193.9,0.7C14.8,907.3,2,919.8,1.7,935.4s12.2,28.5,27.8,28.7
	c0.3,0,0.7,0,1,0l150.4-0.5c-15.8,41-7.6,90.8,24.5,122.7c35.3,35,87.8,41.5,129.9,20.5c4,21.9,14,42.8,30.3,58.9
	c35,34.7,87,41.4,129,21c4.3,22.2,15.2,42.5,31.2,58.4c35,34.7,87,41.4,129,21c12,61.3,71.4,101.2,132.7,89.2
	c22.2-4.3,42.6-15.2,58.5-31.3l230.9-232.4C1098.3,1070.5,1110.2,1041.7,1110,1011.6z M325.5,1046c-22,22.2-57.9,22.3-80,0.3
	c-22.2-22-22.3-57.9-0.3-80l11.1-11.1l208.2-209.5c22-22.2,57.8-22.3,80-0.3c0,0,0,0,0,0c21.4,21.3,21.5,58.6,0.3,80L325.5,1046z
	 M525.5,1085.3L525.5,1085.3l-39.8,40.1c-22,22.2-57.8,22.3-80,0.3s-22.3-57.8-0.3-80l0,0l318.8-321c22-22.2,57.8-22.3,80-0.3
	c0,0,0,0,0,0c21.4,21.3,21.6,58.6,0.3,80l-124,124.8L525.5,1085.3z M645.9,1204.8c-22,22.2-57.8,22.3-80,0.3s-22.3-57.8-0.3-80l0,0
	l155.1-156.1l243.6-245.2c22-22.2,57.8-22.3,80-0.3c0,0,0,0,0,0c21.4,21.3,21.6,58.6,0.3,80L916.7,932.2c0,0-0.1,0-0.1,0
	L645.9,1204.8z M1037,1051.9l-230.9,232.4c-22,22.2-57.8,22.3-80,0.3s-22.3-57.8-0.3-80l231-232.5c22-22,57.7-22.1,79.9-0.2
	C1058.1,993.2,1058.3,1030.4,1037,1051.9z"/>
<path class="st0" d="M28.4,286.2l226.2-0.8c26.4,0,52.4-18.5,88.2-44c70.6-50.3,238.3-126.5,424.7-127.1
	c15.6-0.1,28.2-12.8,28.2-28.4c-0.1-15.6-12.8-28.2-28.4-28.2c-204.4,0.7-385.6,86.4-457.4,137.6c-21,14.9-47,33.5-55.5,33.5
	l-226.2,0.8c-15.6-0.2-28.5,12.2-28.7,27.8s12.2,28.5,27.8,28.7C27.7,286.3,28,286.3,28.4,286.2L28.4,286.2z"/>
<path class="st0" d="M1670.6,902.1l-152.6,0.2c-15.6,0.3-28,13.3-27.7,28.9c0.3,15.2,12.6,27.4,27.8,27.7l152.6-0.2
	c15.6,0.2,28.5-12.2,28.7-27.9c0.2-15.6-12.2-28.5-27.9-28.7C1671.3,902.1,1670.9,902.1,1670.6,902.1z"/>
<path class="st0" d="M1492.8,686.5l-284.8-311.1c-121.8-121-151.9-120.9-161.8-120.8c-37.5,0.1-44.6,4.7-76.4,36.8L828.9,433.3
	c-15.8,15.9-29.6,31.9-41.7,46c-33.4,38.9-52.1,59.1-79.3,59.2c-35.7,0.1-87.9-30.2-88.8-42.1c1.2-2.2,124.6-216.6,167.8-281.8
	c48.5-73.3,125-157.5,287-158c121.4-0.4,286.2,94.5,395.3,157.3c78,44.9,116.6,66.4,142.7,66.3l56.6-0.2
	c15.6-0.1,28.2-12.8,28.2-28.4c-0.1-15.6-12.8-28.2-28.4-28.2l0,0l-56.2,0.2c-14.4-1.1-67.6-31.8-114.6-58.8
	C1376.3,95.1,1210.3-0.4,1073.7,0c-191,0.6-282.1,105-334,183.4c-44.1,66.7-164.6,276-170.5,286.4c-9.4,18.9-8,39.9,4,59
	c25.7,41.3,95.9,66.4,134.9,66.2c54.3-0.2,87.2-38.4,122-78.9c12.1-14,24.6-28.5,38.9-43l141-141.9c9.3-9.4,18.2-18.3,20.8-19.5
	c1.6-0.5,7.6-0.6,13.5-0.6c17.9,6.6,77.8,58.6,123,103.5l284.7,311c8.1,8.2,20.2,25.5,20.2,36.6l0.9,254.5
	c0.1,31.2-25.1,56.6-56.4,56.8s-56.6-25.1-56.8-56.4l-0.7-197.9c-0.1-38.8-33.1-72.7-36.8-76.4l-198.7-197.3
	c-11.1-11-29-10.9-40,0.1s-10.9,29,0.1,40l198.5,197.2c8.1,8.2,20.2,25.5,20.2,36.6l0.9,282.8c0.1,31.2-25.1,56.6-56.4,56.8
	s-56.6-25.1-56.8-56.4l-0.8-226.2c0-15.6-12.8-28.2-28.4-28.2c-15.6,0-28.2,12.8-28.2,28.4l1,311.1c0.1,31.2-25.1,56.6-56.3,56.8
	c-13.9,0.1-27.4-5-37.8-14.3c-11.7-10.4-29.5-9.3-39.9,2.3c-10.4,11.7-9.3,29.5,2.3,39.9l0,0c20.8,18.5,47.7,28.7,75.5,28.6
	c58.3-0.2,105.7-44.8,111.6-101.6c17.4,10.6,37.4,16.2,57.8,16.2c58.3-0.2,105.7-44.8,111.6-101.6c17.4,10.6,37.4,16.2,57.8,16.2
	c62.4-0.3,112.9-51,112.7-113.5l-0.9-254.5C1528.6,723.1,1495.6,689.3,1492.8,686.5z"/>
</svg>
