<svg id="Layer_1" data-name="Layer 1" xmlns="http://www.w3.org/2000/svg" viewBox="0 0 1698.94 1357.55"><defs><style>.cls-1{fill:#3a3a3a;}</style></defs><path class="cls-1" d="M1726,1400.43a112.38,112.38,0,0,0-33.4-79.89c-14.66-14.59-32.49-23.83-51.2-28.69l59.19-59.61a113.1,113.1,0,1,0-160.5-159.4l-50.88,51.2a112.72,112.72,0,0,0-189.06-50.41l-70.83,71.29a112.71,112.71,0,0,0-189-50.44L840.33,1295.69l-193.9.65a28.28,28.28,0,1,0,.19,56.55l150.44-.5c-15.82,41-7.62,90.83,24.46,122.73,35.26,35,87.75,41.49,129.92,20.52,4,21.93,14,42.77,30.34,58.95,35,34.72,87,41.39,129,21A112.33,112.33,0,0,0,1142,1634c35,34.72,87,41.41,129,21a113.06,113.06,0,0,0,191.18,57.91l230.89-232.43A112.3,112.3,0,0,0,1726,1400.43Zm-784.56,34.31A56.58,56.58,0,0,1,861.1,1355l11.09-11.14,208.16-209.54a56.55,56.55,0,0,1,80-.26c21.41,21.3,21.53,58.55.26,80Zm200.07,39.33-.06,0-39.78,40.1a56.56,56.56,0,1,1-80.25-79.73l318.84-321a56.55,56.55,0,0,1,80-.27c21.43,21.27,21.56,58.55.27,80l-124,124.85Zm120.38,119.55a56.55,56.55,0,0,1-80.31-79.65l155.06-156.09,243.6-245.19a56.54,56.54,0,0,1,80-.27c21.42,21.27,21.55,58.55.26,80L1532.66,1321s-.06,0-.08,0ZM1653,1440.67l-230.87,232.42a56.56,56.56,0,0,1-80.28-79.7l231-232.54a56.63,56.63,0,0,1,79.89-.19C1674.12,1382,1674.27,1419.21,1653,1440.67Z" transform="translate(-615.99 -388.79)"/><path class="cls-1" d="M644.37,675l226.22-.75C897,674.2,923,655.77,958.76,630.2c70.61-50.35,238.29-126.45,424.71-127.07a28.28,28.28,0,0,0-.19-56.56c-204.39.68-385.57,86.4-457.38,137.62-20.95,14.94-47,33.52-55.5,33.55l-226.22.75a28.28,28.28,0,1,0,.19,56.55Z" transform="translate(-615.99 -388.79)"/><path class="cls-1" d="M2286.55,1290.88l-152.55.19a28.29,28.29,0,0,0,.18,56.57l152.55-.19a28.29,28.29,0,1,0-.18-56.57Z" transform="translate(-615.99 -388.79)"/><path class="cls-1" d="M2108.81,1075.33,1824.06,764.24c-121.81-121-151.89-120.88-161.79-120.85-37.53.13-44.58,4.74-76.43,36.81L1444.92,822.07c-15.83,15.91-29.55,31.91-41.71,46-33.42,38.85-52.13,59.14-79.34,59.23-35.68.12-87.95-30.15-88.78-42.07,1.22-2.16,124.63-216.62,167.79-281.85,48.5-73.28,125-157.5,287-158,121.37-.4,286.24,94.49,395.32,157.28,78,44.87,116.56,66.44,142.71,66.35l56.57-.19a28.28,28.28,0,0,0-.19-56.56l-56.25.18c-14.36-1.1-67.64-31.75-114.61-58.79-121.18-69.73-287.12-165.27-423.74-164.82-191,.64-282.06,105-334,183.39-44.12,66.67-164.57,276-170.5,286.39-9.36,18.91-8,39.89,4,59,25.68,41.26,95.86,66.38,134.89,66.25,54.32-.18,87.22-38.41,122-78.9,12.06-14,24.57-28.53,38.94-43L1626,720.05c9.35-9.38,18.18-18.27,20.83-19.49,1.58-.52,7.6-.59,13.5-.61,17.91,6.61,77.8,58.64,123,103.46l284.67,311c8.12,8.19,20.16,25.53,20.2,36.58l.85,254.49a56.56,56.56,0,1,1-113.12.38l-.66-197.94c-.13-38.85-33.07-72.67-36.82-76.43L1739.79,934.2a28.27,28.27,0,1,0-39.85,40.11l198.52,197.2c8.11,8.21,20.16,25.53,20.2,36.58l.94,282.78a56.56,56.56,0,1,1-113.12.38l-.75-226.22a28.28,28.28,0,0,0-56.56.18l1,311.06a56.55,56.55,0,0,1-94.12,42.48,28.27,28.27,0,1,0-37.6,42.23,112.84,112.84,0,0,0,75.54,28.6c58.3-.2,105.73-44.83,111.59-101.59a111.68,111.68,0,0,0,57.79,16.19c58.31-.2,105.74-44.84,111.6-101.58a111.74,111.74,0,0,0,57.79,16.18,113.22,113.22,0,0,0,112.74-113.48l-.85-254.51C2144.56,1111.94,2111.62,1078.12,2108.81,1075.33Z" transform="translate(-615.99 -388.79)"/></svg>