<?xml version="1.0" encoding="UTF-8"?><svg id="Layer_1" xmlns="http://www.w3.org/2000/svg" viewBox="0 0 3440 146.46"><defs><style>.cls-1,.cls-2,.cls-3,.cls-4,.cls-5,.cls-6,.cls-7,.cls-8,.cls-9,.cls-10,.cls-11,.cls-12,.cls-13,.cls-14,.cls-15,.cls-16,.cls-17,.cls-18,.cls-19,.cls-20,.cls-21,.cls-22,.cls-23,.cls-24,.cls-25,.cls-26,.cls-27,.cls-28,.cls-29,.cls-30,.cls-31,.cls-32,.cls-33,.cls-34,.cls-35,.cls-36,.cls-37,.cls-38,.cls-39,.cls-40,.cls-41,.cls-42,.cls-43,.cls-44,.cls-45,.cls-46,.cls-47,.cls-48,.cls-49,.cls-50,.cls-51,.cls-52,.cls-53{fill:none;}.cls-2{stroke-width:.19px;}.cls-2,.cls-3,.cls-4,.cls-5,.cls-6,.cls-7,.cls-8,.cls-9,.cls-10,.cls-11,.cls-12,.cls-13,.cls-14,.cls-15,.cls-16,.cls-17,.cls-18,.cls-19,.cls-20,.cls-21,.cls-22,.cls-23,.cls-24,.cls-25,.cls-26,.cls-27,.cls-28,.cls-29,.cls-30,.cls-31,.cls-32,.cls-33,.cls-34,.cls-35,.cls-36,.cls-37,.cls-38,.cls-39,.cls-40,.cls-41,.cls-42,.cls-43,.cls-44,.cls-45,.cls-46,.cls-47,.cls-48,.cls-49,.cls-50,.cls-51,.cls-52,.cls-53{stroke:#bababa;stroke-miterlimit:10;}.cls-3{stroke-width:.08px;}.cls-4{stroke-width:.54px;}.cls-5{stroke-width:.55px;}.cls-6{stroke-width:.04px;}.cls-7{stroke-width:.27px;}.cls-8{stroke-width:.42px;}.cls-9{stroke-width:.85px;}.cls-10{stroke-width:.43px;}.cls-11{stroke-width:.62px;}.cls-12{stroke-width:.63px;}.cls-13{stroke-width:.03px;}.cls-14{stroke-width:.65px;}.cls-15{stroke-width:.32px;}.cls-16{stroke-width:.92px;}.cls-17{stroke-width:.23px;}.cls-18{stroke-width:.23px;}.cls-19{stroke-width:.72px;}.cls-20{stroke-width:.37px;}.cls-21{stroke-width:.75px;}.cls-22{stroke-width:.06px;}.cls-23{stroke-width:.73px;}.cls-24{stroke-width:.12px;}.cls-25{stroke-width:.12px;}.cls-26{stroke-width:.26px;}.cls-27{stroke-width:.52px;}.cls-28{stroke-width:.38px;}.cls-29{stroke-width:.81px;}.cls-30{stroke-width:.4px;}.cls-31{stroke-width:.77px;}.cls-32{stroke-width:.2px;}.cls-34{stroke-width:.31px;}.cls-35{stroke-width:.14px;}.cls-36{stroke-width:.58px;}.cls-37{stroke-width:.58px;}.cls-38{stroke-width:.15px;}.cls-39{stroke-width:.29px;}.cls-40{stroke-width:.61px;}.cls-41{stroke-width:.88px;}.cls-42{stroke-width:.17px;}.cls-43{stroke-width:.35px;}.cls-44{stroke-width:.35px;}.cls-45{stroke-width:.69px;}.cls-46{stroke-width:.69px;}.cls-47{stroke-width:.66px;}.cls-48{stroke-width:.46px;}.cls-49{stroke-width:.46px;}.cls-50{stroke-width:.09px;}.cls-51{stroke-width:.5px;}.cls-52{stroke-width:.49px;}.cls-53{stroke-width:.96px;}</style></defs><g><path class="cls-1" d="M36.78-590.93c171.25,12.87,252.74,127.94,314.38,186,64.92,61.13,116.09,122.5,215.71,173.58,97.78,50.14,216.53,91.58,332.37,133.8,113.5,41.37,224.72,84.14,351.94,118.33,278.99,74.99,634.89,76.9,995.33,52.49,165.37-11.2,332.76-31.54,478.54-81.18,174.59-59.46,328.95-133.54,491.48-199.37,144.24-58.42,290.3-115.98,438.11-172.66,113.8-43.63,236.56-102.92,385.34-111.47"/><path class="cls-13" d="M-5.43-539.84c138.39,6.92,223.63,77.17,286.22,132.75,15.85,14.07,30.03,27.47,43.5,38.44,69.26,56.38,125.25,112.05,227.25,159.67,98.39,45.93,216.21,85.28,331.69,124.75,67.75,23.1,134.74,46.77,204.71,68.98,47.14,14.91,95.63,29.2,146.6,42.21,122.63,31.07,259.47,49.02,404.56,57.14,186.5,10.33,386.59,4.98,587.98-8.18,81.11-5.29,162.68-12.68,242-24.48,35.08-5.22,69.71-11.3,103.68-18.46,45.43-9.54,89.47-21.1,131.73-34.67,177.35-56.93,330-125.21,489.64-184.79,142.15-53.05,285.26-103.07,434.72-156.74,113.08-40.6,235.43-97.95,384.77-106.64"/><path class="cls-22" d="M-47.64-488.75c140.51,3.6,231.4,69.12,298.93,120.86,16.81,12.88,31.77,25.43,46.14,35.51,73.56,51.63,134.32,101.62,238.8,145.76,98.9,41.78,215.9,78.97,331.02,115.7,67.63,21.46,134.55,43.56,204.35,64.38,47.13,13.96,95.55,27.4,146.34,39.67,122.82,29.23,259.26,46.29,403.5,53.82,186.38,9.52,385.73,4.23,586.23-8.4,80.88-5.08,162.19-12.14,241.33-23.41,34.98-4.99,69.52-10.8,103.43-17.63,45.44-9.12,89.35-20.27,131.5-32.99,180.16-54.38,331.09-116.86,487.8-170.2,140.11-47.68,280.16-90.19,431.32-140.82,112.31-37.62,234.31-92.99,384.2-101.81"/><path class="cls-50" d="M-89.85-437.66c142.64,.27,239.02,61.07,311.64,108.98,17.73,11.7,33.51,23.39,48.78,32.58,77.83,46.89,143.3,91.23,250.34,131.85,99.33,37.69,215.58,72.67,330.34,106.64,67.52,19.83,134.37,40.35,203.99,59.78,47.11,13,95.43,25.72,146.08,37.12,122.95,27.69,259.05,43.57,402.44,50.51,186.27,8.72,384.86,3.48,584.49-8.61,80.66-4.86,161.7-11.59,240.66-22.33,34.87-4.75,69.34-10.29,103.18-16.8,45.45-8.69,89.24-19.42,131.28-31.32,183-51.78,332.23-108.51,485.97-155.62,138.1-42.31,275.02-77.34,427.93-124.89,111.51-34.68,233.18-88.03,383.64-96.98"/><path class="cls-25" d="M-132.06-386.57c144.77-3.05,246.5,53.06,324.35,97.1,18.62,10.53,35.24,21.35,51.41,29.66,82.07,42.16,152.19,80.88,261.89,117.93,99.67,33.67,215.26,66.37,329.67,97.59,67.4,18.19,134.18,37.14,203.63,55.17,47.1,12.05,95.34,23.95,145.82,34.58,123.14,25.94,258.84,40.84,401.39,47.19,186.15,7.91,384,2.73,582.75-8.82,80.43-4.64,161.22-11.05,239.99-21.26,34.77-4.52,69.15-9.78,102.94-15.98,45.46-8.27,89.13-18.56,131.06-29.64,185.87-49.14,333.4-100.14,484.13-141.03,136.13-36.93,269.82-64.53,424.53-108.97,110.67-31.79,232.06-83.07,383.07-92.15"/><path class="cls-35" d="M-174.27-335.48c146.89-6.38,253.85,45.11,337.06,85.22,19.47,9.39,36.97,19.32,54.05,26.73,86.28,37.45,161.01,70.58,273.43,104.02,99.95,29.73,214.94,60.06,328.99,88.53,67.28,16.55,133.96,34.08,203.27,50.57,47.05,11.2,95.25,22.18,145.56,32.04,123.32,24.18,258.64,38.12,400.33,43.87,186.03,7.1,383.14,1.98,581.01-9.04,80.2-4.43,160.73-10.5,239.32-20.18,34.67-4.28,68.96-9.27,102.69-15.15,45.47-7.84,89.04-17.68,130.84-27.97,188.78-46.45,334.63-91.74,482.29-126.44,134.21-31.54,264.58-51.77,421.14-93.05,109.8-28.95,230.93-78.11,382.5-87.32"/><path class="cls-42" d="M-216.48-284.39c149.02-9.7,261.1,37.25,349.76,73.33,20.3,8.26,38.7,17.29,56.69,23.8,90.47,32.76,169.75,60.34,284.97,90.11,100.16,25.87,214.63,53.76,328.32,79.48,67.16,14.92,133.77,30.9,202.91,45.97,47.04,10.26,95.16,20.4,145.3,29.5,123.51,22.41,258.43,35.39,399.27,40.55,185.92,6.29,382.28,1.23,579.27-9.25,79.98-4.21,160.24-9.95,238.65-19.1,34.57-4.05,68.78-8.76,102.44-14.33,45.48-7.41,88.95-16.79,130.62-26.29,191.71-43.72,335.9-83.32,480.45-111.86,132.34-26.13,259.3-39.06,417.75-77.13,108.89-26.17,229.81-73.15,381.93-82.5"/><path class="cls-32" d="M-258.69-233.31c151.15-13.02,268.28,29.48,362.47,61.45,21.11,7.17,40.42,15.26,59.32,20.87,94.64,28.09,178.43,50.18,296.52,76.19,100.31,22.1,214.26,47.71,327.64,70.43,67.02,13.43,133.59,27.71,202.55,41.37,47.02,9.31,95.07,18.62,145.04,26.96,123.71,20.63,258.22,32.67,398.22,37.24,185.8,5.48,381.41,.47,577.53-9.47,79.75-4,159.76-9.41,237.97-18.03,34.47-3.82,68.59-8.25,102.2-13.5,45.49-6.99,88.87-15.89,130.39-24.62,194.68-40.93,337.22-74.86,478.62-97.27,130.51-20.69,253.97-26.4,414.35-61.21,107.96-23.43,228.68-68.19,381.37-77.67"/><path class="cls-18" d="M-300.9-182.22c153.27-16.35,275.4,21.81,375.18,49.57,21.91,6.09,42.14,13.24,61.96,17.95,98.8,23.45,187.06,40.1,308.06,62.28,100.42,18.41,213.94,41.43,326.97,61.37,66.9,11.81,133.4,24.52,202.19,36.77,47,8.37,94.98,16.84,144.78,24.42,123.91,18.85,258.01,29.94,397.16,33.92,185.68,4.67,380.55-.28,575.78-9.68,79.52-3.78,159.27-8.86,237.3-16.95,34.37-3.58,68.4-7.74,101.95-12.67,45.49-6.56,88.8-14.97,130.17-22.94,197.66-38.09,338.58-66.35,476.78-82.68,128.72-15.22,248.61-13.8,410.96-45.29,107-20.76,227.56-63.23,380.8-72.84"/><path class="cls-26" d="M-343.11-131.13c155.4-19.67,282.48,14.26,387.89,37.69,22.7,5.04,43.85,11.23,64.6,15.02,102.96,18.83,195.65,30.11,319.6,48.37,100.5,14.81,213.63,35.14,326.29,52.32,66.78,10.18,133.22,21.32,201.83,32.17,46.99,7.43,94.9,15.06,144.52,21.87,124.11,17.05,257.8,27.22,396.11,30.6,185.57,3.86,379.69-1.03,574.04-9.89,79.29-3.56,158.79-8.32,236.63-15.88,34.27-3.35,68.22-7.24,101.7-11.85,45.5-6.14,88.72-14.04,129.95-21.27,200.67-35.2,339.99-57.79,474.94-68.1,126.98-9.7,243.22-1.26,407.56-29.37,106.02-18.13,226.44-58.27,380.23-68.01"/><path class="cls-39" d="M-385.31-80.04C-227.79-103.03-95.77-73.23,15.28-54.23c23.48,4.02,45.57,9.21,67.23,12.09C189.62-27.91,286.72-21.94,413.66-7.68c100.55,11.29,213.32,28.85,325.61,43.26,66.67,8.55,133.04,18.13,201.46,27.56,46.97,6.48,94.81,13.27,144.25,19.33,124.31,15.25,257.6,24.49,395.05,27.29,185.45,3.05,378.83-1.78,572.3-10.11,79.07-3.35,158.3-7.77,235.96-14.8,34.17-3.11,68.03-6.73,101.46-11.02,45.51-5.71,88.66-13.09,129.73-19.59C2723.18,21.99,2860.97-4.7,2992.6,.72c125.25,5.16,237.8,11.21,404.17-13.45,105.02-15.56,225.31-53.31,379.66-63.18"/><path class="cls-15" d="M-427.52-28.95c159.65-26.32,296.61-.55,413.3,13.92C10.05-12.02,33.07-7.82,55.65-5.86,166.91,3.79,268.39,4.53,398.34,14.68c100.58,7.85,213.01,22.56,324.94,34.21,66.56,6.93,132.86,14.93,201.1,22.96,46.96,5.53,94.73,11.47,143.99,16.79,124.51,13.44,257.38,22.04,393.99,23.97,185.33,2.62,377.96-2.53,570.56-10.32,78.84-3.13,157.81-7.23,235.29-13.73,34.07-2.88,67.84-6.22,101.21-10.19,45.52-5.28,88.59-12.13,129.51-17.92,206.73-29.24,343.46-50.67,471.27-38.93,123.11,11.32,232.36,23.6,400.78,2.48,104.01-13.05,224.19-48.35,379.1-58.35"/><path class="cls-43" d="M-469.73,22.14C-307.95-7.5-166.04,14.32-43.72,24.18c25.06,2.02,49,5.2,72.51,6.24,115.42,5.08,222.66-13.41,354.23,6.63,99.55,15.17,212.7,16.27,324.26,25.15,66.44,5.29,132.67,11.72,200.74,18.36,46.95,4.58,94.65,9.68,143.73,14.25,124.72,11.62,257.18,19.32,392.94,20.65,185.21,1.82,377.1-3.28,568.82-10.54,78.61-2.92,157.33-6.68,234.62-12.65,33.97-2.65,67.65-5.71,100.96-9.37,45.53-4.86,88.53-11.16,129.28-16.24,209.78-26.17,344.44-31.69,469.43-24.34,121.99,7.18,226.9,35.92,397.38,18.4,102.98-10.58,223.06-43.39,378.53-53.53"/><path class="cls-20" d="M-511.94,73.23c163.91-32.97,311.65-25.51,438.72-9.84,25.68,3.17,50.73,2.78,75.14,3.31,119.56,2.6,230.71-23.15,365.78-7.28,99.95,11.74,212.39,9.97,323.59,16.1,66.33,3.66,132.49,8.52,200.38,13.76,46.93,3.62,94.56,7.88,143.47,11.71,124.93,9.79,256.97,16.6,391.88,17.33,185.1,1.01,376.24-4.03,567.07-10.75,78.39-2.7,156.84-6.14,233.95-11.58,33.87-2.41,67.47-5.2,100.72-8.54,45.54-4.43,88.47-10.17,129.06-14.57,212.84-23.04,345.97-22.83,467.59-9.75,120.37,12.94,221.42,48.15,393.99,34.32,101.95-8.17,221.94-38.42,377.96-48.7"/><path class="cls-30" d="M-554.15,124.32c166.03-36.29,318.33-32.29,451.43-21.73,26.57,2.11,52.44,1.2,77.78,.38,123.75-4.01,238.77-32.59,377.32-21.19,100.34,8.25,212.08,3.66,322.91,7.05,66.22,2.02,132.31,5.31,200.02,9.16,46.92,2.67,94.48,6.07,143.21,9.16,125.14,7.94,256.76,14.43,390.82,14.02,184.98-.57,375.38-4.78,565.33-10.96,78.16-2.48,156.35-5.59,233.28-10.5,33.77-2.18,67.28-4.69,100.47-7.72,45.55-4.01,88.41-9.18,128.84-12.89,215.9-19.84,347.51-13.88,465.75,4.83s215.94,60.3,390.59,50.24c100.91-5.81,220.81-33.46,377.39-43.87"/><path class="cls-10" d="M-596.36,175.41c168.16-39.62,325.09-38.87,464.13-33.61,27.45,1.04,54.16-.79,80.41-2.54,127.92-8.53,246.88-27.83,388.87-35.11,100.7-5.16,211.77-2.65,322.24-2.01,66.1,.38,132.13,2.09,199.66,4.55,46.91,1.71,94.4,4.26,142.95,6.62,125.34,6.09,256.56,11.14,389.77,10.7,184.87-.61,374.51-5.53,563.59-11.18,77.93-2.27,155.87-5.04,232.61-9.42,33.67-1.94,67.09-4.18,100.22-6.89,45.56-3.58,88.35-8.17,128.62-11.22,218.97-16.58,349.04-4.84,463.92,19.42,117.14,24.74,211.47,86,387.2,66.16,99.3-11.21,219.69-28.5,376.82-39.04"/><path class="cls-49" d="M-638.57,226.5c170.29-42.94,332.24-36.19,476.84-45.49,28.27-1.82,55.88-2.79,83.05-5.47,132.1-13.05,255.46-37.15,400.41-49.02,100.76-8.25,211.46-8.96,321.56-11.06,65.99-1.26,131.95-1.12,199.3-.05,46.9,.75,94.32,2.45,142.69,4.08,125.55,4.23,256.35,8.41,388.71,7.38,184.75-1.43,373.65-6.28,561.85-11.39,77.71-2.05,155.38-4.5,231.94-8.35,33.57-1.71,66.91-3.67,99.98-6.06,45.57-3.16,88.29-7.15,128.4-9.54,222.04-13.25,350.55,4.29,462.08,34,115.5,30.77,205.65,97.72,383.81,82.08,98.46-8.64,218.56-23.54,376.26-34.21"/><path class="cls-52" d="M-680.78,277.58c172.41-46.26,339.45-43.14,489.55-57.37,29.08-2.76,57.61-4.78,85.69-8.4,136.29-17.56,264.06-46.37,411.95-62.93,100.85-11.29,211.15-15.28,320.88-20.12,65.88-2.9,131.77-4.34,198.94-4.65,46.88-.21,94.24,.63,142.43,1.54,125.76,2.36,256.14,5.41,387.66,4.07,184.63-2.61,372.79-7.04,560.11-11.61,77.48-1.83,154.89-3.95,231.27-7.27,33.46-1.48,66.72-3.17,99.73-5.24,45.58-2.73,88.23-6.12,128.17-7.87,225.1-9.85,352.02,13.51,460.24,48.59,113.83,36.9,199.84,109.15,380.41,98,97.62-6.03,217.44-18.58,375.69-29.38"/><path class="cls-27" d="M-722.99,328.67c174.54-49.59,346.7-50.07,502.26-69.26,29.91-3.69,59.33-6.77,88.32-11.33,140.48-22.07,272.71-55.5,423.5-76.84,100.96-14.29,210.84-21.6,320.21-29.17,65.76-4.55,131.59-7.57,198.57-9.25,46.87-1.18,94.16-.66,142.17-1,125.97-.91,255.93,2.69,386.6,.75,184.52-3.42,371.93-7.79,558.37-11.82,77.25-1.62,154.41-3.41,230.6-6.2,33.36-1.24,66.53-2.66,99.49-4.41,45.59-2.3,88.17-5.08,127.95-6.19,228.16-6.38,353.45,22.81,458.4,63.18,112.1,43.12,194.07,120.29,377.02,113.92,96.77-3.37,216.32-13.62,375.12-24.55"/><path class="cls-5" d="M-765.2,379.76c176.67-52.91,353.98-56.95,514.97-81.14,30.74-4.62,61.06-8.76,90.96-14.25C-14.59,257.8,122.13,219.82,275.77,193.61c101.1-17.24,210.53-27.93,319.53-38.23,65.65-6.2,131.41-10.79,198.21-13.85,46.86-2.15,94.07-3.01,141.91-3.55,126.18-1.41,255.73-.04,385.54-2.57,184.4-4.23,371.06-8.54,556.62-12.04,77.03-1.4,153.92-2.86,229.93-5.12,33.26-1.01,66.35-2.15,99.24-3.59,45.6-1.88,88.12-5.49,127.73-4.52,231.16,5.66,354.81,32.18,456.56,77.76,110.31,49.42,188.63,119.64,373.62,129.85,95.77,5.28,215.19-8.66,374.55-19.73"/><path class="cls-37" d="M-807.41,430.85c178.79-56.24,361.28-63.82,527.67-93.02,31.58-5.54,62.79-10.75,93.6-17.18,148.89-31.07,290.14-73.53,446.58-104.67,101.27-20.16,210.22-34.26,318.86-47.28,65.53-7.85,131.23-14.02,197.85-18.45,46.84-3.12,93.99-4.84,141.64-6.09,126.38-3.31,255.52-2.76,384.49-5.89,184.28-5.04,370.2-9.29,554.88-12.25,76.8-1.19,153.43-2.32,229.26-4.05,33.16-.77,66.16-1.64,98.99-2.76,45.61-1.45,88.07-4.27,127.51-2.84,234.1,8.46,356.1,41.6,454.73,92.35,108.43,55.79,183.22,131.21,370.23,145.77,94.77,7.37,214.07-3.7,373.99-14.9"/><path class="cls-40" d="M-849.62,481.94c180.92-59.56,368.62-70.66,540.38-104.9,32.42-6.46,64.51-12.74,96.23-20.11,153.1-35.56,298.93-82.43,458.13-118.58,101.48-23.05,209.87-40.8,318.18-56.33,65.4-9.63,131.04-17.25,197.49-23.06,46.83-4.09,93.9-6.67,141.38-8.63,126.58-5.22,255.31-5.49,383.43-9.2,184.17-5.84,369.34-10.04,553.14-12.46,76.57-.97,152.95-1.77,228.59-2.97,33.06-.54,65.97-1.13,98.75-1.93,45.62-1.03,87.98-1.9,127.29-1.17,237.27,4.43,357.32,51.07,452.89,106.94,106.46,62.23,177.85,142.69,366.84,161.69,93.8,9.43,212.94,1.26,373.42-10.07"/><path class="cls-12" d="M-891.83,533.03c183.05-62.88,375.98-77.48,553.09-116.79,33.27-7.38,66.24-14.73,98.87-23.04,157.32-40.05,307.77-91.26,469.67-132.49,101.73-25.91,209.55-47.11,317.51-65.39,65.28-11.27,130.86-20.49,197.13-27.66,46.81-5.06,93.82-8.51,141.12-11.17,126.78-7.14,255.1-8.21,382.37-12.52,184.05-6.65,368.48-10.79,551.4-12.68,76.35-.75,152.46-1.22,227.92-1.89,32.96-.3,65.78-.62,98.5-1.11,45.62-.6,87.91-.82,127.07,.51,240.28,8.17,358.44,60.56,451.05,121.52,104.4,68.71,172.53,154.07,363.44,177.61,92.85,11.45,211.82,6.22,372.85-5.24"/><path class="cls-47" d="M-934.04,584.12c185.17-66.21,383.37-84.29,565.8-128.67,34.13-8.3,67.99-16.66,101.51-25.96,161.62-44.25,316.67-100.04,481.22-146.41,102.01-28.75,209.24-53.41,316.83-74.44,65.16-12.91,130.66-23.83,196.77-32.26,46.78-6.11,93.73-10.34,140.86-13.71,126.98-9.08,254.89-10.94,381.32-15.84,183.93-7.46,367.62-11.54,549.66-12.89,76.12-.54,151.97-.68,227.25-.82,32.86-.07,65.6-.11,98.25-.28,45.63-.17,87.83,.26,126.84,2.18,243.27,11.98,359.48,70.07,449.21,136.11,102.23,75.23,167.24,165.35,360.05,193.53,91.91,13.44,210.69,11.18,372.28-.41"/><path class="cls-45" d="M-976.25,635.21c187.3-69.53,390.78-91.09,578.51-140.55,34.99-9.22,69.72-18.67,104.14-28.89,165.82-48.84,325.62-108.76,492.76-160.32,102.32-31.57,208.92-59.71,316.16-83.5,65.05-14.54,130.47-27.04,196.41-36.86,46.77-7.07,93.64-12.27,140.6-16.25,127.15-11.26,254.69-13.66,380.26-19.15,183.82-8.27,366.75-12.29,547.92-13.11,75.89-.32,151.49-.13,226.58,.26,32.76,.16,65.41,.39,98.01,.55,45.64,.25,87.75,1.35,126.62,3.86,246.23,15.87,360.43,79.58,447.38,150.69,99.96,81.76,162.01,176.53,356.65,209.45,91.01,15.4,209.57,16.15,371.72,4.42"/><path class="cls-19" d="M-1018.45,686.3c189.43-72.86,398.22-97.88,591.21-152.43,35.85-10.13,71.44-20.67,106.78-31.82C-150.44,448.63,14.17,384.61,183.84,327.81c102.68-34.37,208.6-66.02,315.48-92.55,64.93-16.18,130.29-30.25,196.05-41.46,46.75-8.03,93.55-14.08,140.34-18.8,127.35-13.1,254.48-16.39,379.2-22.47,183.7-9.08,365.89-13.04,546.17-13.32,75.66-.11,151,.41,225.91,1.33,32.66,.4,65.22,.9,97.76,1.37,45.65,.68,87.67,2.45,126.4,5.53,249.17,19.81,361.3,89.07,445.54,165.28,97.6,88.29,156.84,187.61,353.26,225.37,90.13,17.33,208.45,21.11,371.15,9.24"/><path class="cls-21" d="M-1060.66,737.39c191.55-76.18,405.67-104.66,603.92-164.32C-243.49,508.9-39.44,425.17,168.52,350.18c165.78-59.78,337.12-114.35,510.49-147.67,174.6-33.56,349.07-38.02,518.23-47.13,260.78-14.05,517.24-16.02,769.67-11.13,32.56,.63,65.04,1.41,97.51,2.2,848.27,20.52,406.38,507.38,1290.33,442.44"/></g><g><path class="cls-1" d="M-1101.83,428.49c190.49,30.62,869.92-103.7,959.44-31.36C172.48,651.57,1290.74-59.68,1922.2,15.54c210.33,25.05,290.24,180.93,514.29,161.24,292.08-25.67,550.29-105.19,826.62-156.42,183.17-33.96,419.89-96.15,613.59-84.83"/><path class="cls-6" d="M-1106.23,424.97c187.89,28.52,846.75-101.65,937.31-31.76,104.11,80.34,292.36,59.63,520.95-2.73C813.7,264.95,1435.17-22.39,1848.85,21.56c91.07,9.68,160.47,40.29,227.23,72.6,70.52,34.31,138.06,69.93,225.71,79.93,27.28,3.09,56.46,3.81,88.19,1.42,92.09-6.86,181.13-18.25,268.48-32.07,14.99-2.38,29.93-4.82,44.84-7.33,185.92-31.41,365.39-70.45,552.29-98.19,193.14-27.99,437.96-83.24,642.1-71.51"/><path class="cls-3" d="M-1110.63,421.46c185.29,26.42,823.54-99.6,915.19-32.17,103.47,76.13,286.58,56.8,508.9-3.41C765.19,264.31,1369.77-10.52,1775.5,27.58c94.04,8.83,167.57,36.63,238.58,67.35,74.66,32.65,146.4,67.42,237.25,77.44,28.7,3.12,59.21,3.99,92.16,1.89,96.16-5.98,189.28-16.13,280.68-28.51,15.68-2.13,31.3-4.32,46.89-6.58,194.19-28.25,381.9-61.94,577.03-83.69,203.05-22.64,456.03-70.33,670.62-58.19"/><path class="cls-24" d="M-1115.04,417.94c182.69,24.32,800.26-97.56,893.07-32.57,102.76,71.95,280.79,53.98,496.84-4.09C716.69,263.68,1304.45,.98,1702.14,33.6c97.02,7.96,174.75,32.77,249.92,62.1,78.87,30.78,154.74,64.9,248.78,74.94,30.12,3.16,61.96,4.17,96.13,2.36,100.23-5.1,197.43-14.01,292.88-24.95,16.36-1.88,32.67-3.82,48.95-5.82,202.46-25.08,398.48-53.05,601.76-69.19,213.03-16.91,474.1-57.43,699.13-44.88"/><path class="cls-38" d="M-1119.44,414.43c180.09,22.22,776.93-95.51,870.95-32.98,101.97,67.82,275,51.16,484.78-4.78C668.18,263.04,1239.2,12.13,1628.79,39.62c100.03,7.06,181.86,29.05,261.26,56.85,83.02,29.06,163.08,62.39,260.31,72.44,31.54,3.19,64.71,4.35,100.1,2.83,104.3-4.22,205.58-11.9,305.08-21.39,17.05-1.64,34.04-3.32,51-5.06,210.73-21.91,415.07-44.13,626.5-54.68,223.02-11.14,492.17-44.52,727.65-31.56"/><path class="cls-2" d="M-1123.84,410.91c177.49,20.12,753.54-93.44,848.83-33.38,101.11,63.73,269.11,47.91,472.73-5.46C619.45,261.53,1174,22.97,1555.44,45.63c103.05,6.12,188.97,25.35,272.61,51.6,87.16,27.35,171.41,59.87,271.85,69.94,32.96,3.22,67.46,4.53,104.07,3.3,108.36-3.34,213.73-9.78,317.28-17.83,17.74-1.39,35.42-2.82,53.06-4.31,219-18.75,431.67-35.16,651.23-40.18,233.02-5.33,510.24-31.61,756.16-18.24"/><path class="cls-17" d="M-1128.24,407.4c174.88,18.02,730.09-91.36,826.71-33.78,100.18,59.7,263.3,45.02,460.67-6.14C570.9,260.73,1108.85,33.51,1482.08,51.65c106.08,5.16,196.07,21.65,283.95,46.34,91.3,25.66,179.75,57.36,283.38,67.44,34.38,3.25,70.21,4.71,108.04,3.77,112.43-2.46,221.87-7.66,329.48-14.27,18.42-1.14,36.79-2.32,55.12-3.55,227.27-15.58,448.29-28.68,675.96-25.68,243,3.21,528.32-18.71,784.68-4.92"/><path class="cls-7" d="M-1132.65,403.88c172.28,15.92,706.59-89.25,804.59-34.19,99.17,55.73,257.5,42.13,448.62-6.82C522.36,259.95,1043.74,43.78,1408.73,57.67c109.12,4.15,203.17,17.96,295.29,41.09,95.43,23.97,188.09,54.84,294.91,64.94,35.8,3.28,72.96,4.89,112.01,4.24,116.5-1.58,230.02-5.55,341.68-10.71,19.11-.9,38.16-1.82,57.17-2.79,235.54-12.41,464.88-17.14,700.7-11.18,253.03,6.4,546.39-5.8,813.19,8.39"/><path class="cls-34" d="M-1137.05,400.37c169.68,13.82,683.02-87.11,782.47-34.59,98.1,51.81,251.7,39.24,436.56-7.51C473.82,259.17,978.99,82.01,1335.38,63.69c112.07-5.76,210.27,14.27,306.63,35.84,99.57,22.28,196.43,52.33,306.45,62.45,37.21,3.32,75.71,5.07,115.98,4.71,120.56-.7,238.17-3.43,353.88-7.15,19.79-.65,39.53-1.32,59.23-2.04,243.81-9.25,481.49-8.08,725.43,3.33,263.04,12.3,564.46,7.11,841.71,21.71"/><path class="cls-44" d="M-1141.45,396.85c167.08,11.72,659.4-84.93,760.35-34.99,96.97,47.97,245.9,36.37,424.5-8.19C425.28,258.4,914.3,92.77,1262.02,69.71c115-7.63,217.37,10.6,317.98,30.59,103.7,20.6,204.77,49.82,317.98,59.95,38.63,3.35,78.46,5.25,119.95,5.18,124.63,.18,246.32-1.31,366.08-3.59,20.48-.4,40.9-.82,61.29-1.28,252.07-6.08,498.1,1,750.17,17.83,273.05,18.23,582.53,20.02,870.22,35.03"/><path class="cls-28" d="M-1145.85,393.33c164.48,9.62,635.72-82.71,738.22-35.4,95.77,44.2,240.1,33.49,412.45-8.87C376.75,257.63,849.62,102.89,1188.67,75.73c117.93-9.45,224.46,6.92,329.32,25.33,107.83,18.93,213.11,47.3,329.52,57.45,40.05,3.38,81.21,5.43,123.92,5.65,128.7,1.06,254.47,.8,378.28-.03,21.16-.16,42.27-.32,63.34-.52,260.34-2.91,514.7,10.1,774.9,32.33,283.05,24.19,600.6,32.92,898.74,48.34"/><path class="cls-8" d="M-1150.26,389.82c161.88,7.52,611.99-80.42,716.1-35.8,94.51,40.5,234.31,30.62,400.39-9.56C328.23,256.88,784.93,112.41,1115.32,81.75c120.86-11.22,231.56,3.26,340.66,20.08,111.96,17.27,221.45,44.79,341.05,54.95,41.47,3.41,83.97,5.61,127.89,6.12,132.76,1.94,262.62,2.92,390.48,3.53,21.85,.09,43.64,.18,65.4,.23,268.61,.25,531.3,19.22,799.63,46.83,293.05,30.16,618.67,45.83,927.25,61.66"/><path class="cls-48" d="M-1154.66,386.3c159.28,5.42,588.2-78.06,693.98-36.21,93.21,36.89,228.51,27.76,388.34-10.24C279.7,256.15,720.22,121.38,1041.96,87.77c123.79-12.93,238.66-.41,352,14.83,116.09,15.6,229.79,42.27,352.58,52.45,42.89,3.45,86.72,5.79,131.86,6.59,136.83,2.82,270.77,5.04,402.68,7.09,22.54,.34,45.01,.68,67.46,.99,276.88,3.42,547.9,28.35,824.37,61.34,303.05,36.15,636.74,58.74,955.76,74.98"/><path class="cls-51" d="M-1159.06,382.79c156.67,3.32,564.37-75.63,671.86-36.61,91.86,33.35,222.72,24.91,376.28-10.92C231.18,255.42,655.46,129.84,968.61,93.79c126.73-14.59,245.75-4.06,363.35,9.58,120.22,13.95,238.13,39.76,364.12,49.95,44.31,3.48,89.47,5.97,135.82,7.06,140.9,3.7,278.92,7.15,414.88,10.65,23.22,.58,46.38,1.18,69.51,1.75,285.15,6.59,564.49,37.5,849.1,75.84,313.04,42.17,654.81,71.64,984.28,88.29"/><path class="cls-4" d="M-1163.47,379.27c154.07,1.22,540.5-73.11,649.74-37.01,90.47,29.9,216.94,22.07,364.22-11.61C182.67,254.71,590.64,137.82,895.26,99.8c129.67-16.18,252.85-7.72,374.69,4.33,124.35,12.29,246.47,37.24,375.65,47.45,45.73,3.51,92.22,6.15,139.79,7.53,144.96,4.58,287.07,9.27,427.08,14.21,23.91,.83,47.75,1.68,71.57,2.5,293.42,9.76,581.08,46.67,873.84,90.34,323.03,48.19,672.88,84.55,1012.79,101.61"/><path class="cls-36" d="M-1167.87,375.76c151.47-.89,516.6-70.49,627.62-37.42,89.04,26.53,211.15,19.23,352.17-12.29C134.16,254.02,525.77,145.37,821.9,105.82c132.62-17.71,259.95-11.37,386.03-.93,128.48,10.64,254.81,34.73,387.19,44.96,47.15,3.54,94.97,6.33,143.76,8,149.03,5.46,295.22,11.39,439.28,17.77,24.59,1.08,49.12,2.18,73.63,3.26,301.69,12.92,597.66,55.84,898.57,104.84,333.01,54.23,690.95,97.46,1041.31,114.93"/><path class="cls-11" d="M-1172.27,372.24c148.87-2.99,492.66-67.76,605.5-37.82,87.6,23.25,205.37,16.41,340.11-12.97C85.66,253.35,458.36,126.94,748.55,111.84c136.74-7.11,267.04-15.02,397.37-6.18s263.15,32.21,398.72,42.46c48.57,3.58,97.72,6.51,147.73,8.47,153.1,6.34,303.37,13.51,451.48,21.33,25.28,1.32,50.49,2.68,75.68,4.02,309.96,16.09,614.24,65.03,923.3,119.35,342.99,60.28,709.02,110.37,1069.82,128.24"/><path class="cls-14" d="M-1176.67,368.73c146.27-5.09,468.7-64.91,583.38-38.22,86.14,20.05,199.59,13.6,328.06-13.66C37.16,252.7,393.29,135.39,675.2,117.86c139.8-8.69,274.14-18.66,408.72-11.43,136.74,7.35,271.49,29.7,410.25,39.96,49.98,3.61,100.47,6.69,151.7,8.94,157.16,7.22,311.51,15.62,463.68,24.89,25.97,1.57,51.86,3.18,77.74,4.77,318.23,19.26,630.82,74.22,948.04,133.85,352.96,66.34,727.09,123.27,1098.34,141.56"/><path class="cls-46" d="M-1181.08,365.21c143.67-7.19,444.73-61.93,561.25-38.63,84.68,16.94,193.81,10.79,316-14.34C-11.33,252.08,328.21,143.73,601.84,123.88c142.85-10.36,281.23-22.05,420.06-16.68,140.86,5.97,279.83,27.18,421.79,37.46,51.4,3.64,103.22,6.87,155.67,9.41,161.23,8.1,319.66,17.74,475.88,28.45,26.65,1.82,53.23,3.68,79.79,5.53,326.49,22.42,647.39,83.42,972.77,148.35,362.93,72.42,745.16,136.18,1126.85,154.88"/><path class="cls-23" d="M-1185.48,361.7c141.07-9.29,420.76-58.81,539.13-39.03,83.22,13.91,188.04,8.01,303.94-15.02C-59.81,251.5,263.11,151.95,528.49,129.9c145.88-12.12,288.33-25.72,431.4-21.94,145,4.3,288.16,24.67,433.32,34.96,52.82,3.67,105.97,7.05,159.64,9.88,165.3,8.98,327.81,19.86,488.08,32.01,27.34,2.06,54.6,4.18,81.85,6.29,334.76,25.59,663.95,92.64,997.51,162.85,372.89,78.5,763.23,149.09,1155.37,168.2"/><path class="cls-31" d="M-1189.88,358.18c138.46-11.39,396.79-55.54,517.01-39.43,81.78,10.96,182.27,5.24,291.89-15.7C-108.29,250.95,197.97,160.08,455.14,135.92c148.9-13.99,295.44-29.38,442.75-27.19,149.14,2.64,296.5,22.16,444.86,32.46,54.24,3.7,108.72,7.23,163.61,10.35,169.36,9.86,335.96,21.97,500.28,35.57,28.02,2.31,55.97,4.68,83.91,7.04,343.03,28.76,680.51,101.85,1022.24,177.36,382.85,84.59,781.3,161.99,1183.88,181.51"/><path class="cls-29" d="M-1194.28,354.67c135.86-13.49,372.85-52.11,494.89-39.84,80.36,8.08,176.5,2.48,279.83-16.39C-156.75,250.44,132.81,168.1,381.78,141.94c151.9-15.97,302.54-33.05,454.09-32.44,153.28,.97,304.84,19.64,456.39,29.97,55.66,3.74,111.47,7.41,167.58,10.82,173.43,10.74,344.11,24.09,512.48,39.13,28.71,2.56,57.34,5.18,85.96,7.8,351.3,31.92,696.92,111.72,1046.97,191.86,392.63,91.41,799.37,174.9,1212.4,194.83"/><path class="cls-9" d="M-1198.69,351.15c133.26-15.59,348.94-48.52,472.77-40.24,78.98,5.28,170.74-.25,267.78-17.07C-205.21,250,67.6,176.05,308.43,147.95c154.87-18.06,309.65-36.72,465.43-37.69,157.42-.7,313.18,17.13,467.92,27.47,57.08,3.77,114.22,7.59,171.55,11.29,177.5,11.62,352.26,26.21,524.69,42.69,29.4,2.8,58.71,5.68,88.02,8.56,359.57,35.09,713.5,120.83,1071.71,206.36,402.61,97.38,817.45,187.81,1240.91,208.15"/><path class="cls-41" d="M-1203.09,347.64c130.66-17.69,325.08-44.76,450.65-40.65,77.64,2.54,164.98-2.96,255.72-17.75C-253.66,249.61,2.35,183.91,235.08,153.97c157.81-20.3,316.75-40.38,476.77-42.94,161.55-2.37,321.52,14.61,479.46,24.97,58.5,3.8,116.98,7.77,175.52,11.76,181.56,12.5,360.41,28.32,536.89,46.25,30.08,3.05,60.08,6.19,90.08,9.31,367.84,38.26,730.08,129.94,1096.44,220.86,412.58,103.35,835.52,200.72,1269.43,221.46"/><path class="cls-16" d="M-1207.49,344.12c128.06-19.79,301.41-46.58,428.53-41.05,76.28,3.32,159.22-5.65,243.66-18.44C-302.1,249.31-62.94,191.69,161.72,159.99c160.72-22.68,323.85-44.05,488.12-48.2,165.69-4.03,329.86,12.1,490.99,22.47,59.92,3.83,119.73,7.95,179.49,12.22,185.63,13.38,368.56,30.44,549.09,49.81,30.77,3.3,61.45,6.69,92.13,10.07,376.11,41.42,746.65,139.05,1121.18,235.37,422.56,109.32,853.59,213.62,1297.94,234.78"/><path class="cls-53" d="M-1211.89,340.61c125.46-21.89,277.57-36.74,406.41-41.45,75.12-2.75,153.46-8.3,231.61-19.12,223.34-30.92,445.58-80.62,662.25-114.02,163.58-25.22,330.96-47.72,499.46-53.45,169.83-5.7,338.2,9.58,502.53,19.97,61.34,3.87,122.48,8.13,183.46,12.69,189.7,14.26,376.71,32.56,561.29,53.37,31.45,3.54,62.82,7.19,94.19,10.83,384.38,44.59,763.23,148.16,1145.91,249.87,432.53,115.29,871.66,226.53,1326.46,248.1"/><path class="cls-33" d="M-1216.3,337.09c192.58-37.6,405.37-37.13,603.84-61.66C-398.97,249.05-193.71,207.07,15.02,172.03c166.4-27.93,338.06-51.39,510.8-58.7,173.97-7.37,346.54,7.07,514.06,17.47,258.26,16.04,511.73,40.69,760.91,70.09,32.14,3.79,64.19,7.69,96.25,11.58,837.19,101.83,1649.45,484.4,2525.62,525.78"/></g></svg>