<svg id="Layer_1" data-name="Layer 1" xmlns="http://www.w3.org/2000/svg" xmlns:xlink="http://www.w3.org/1999/xlink" viewBox="0 0 1920 1240"><defs><style>.cls-1{fill:none;}.cls-2{clip-path:url(#clip-path);}.cls-3{fill:#f1a52b;}.cls-4{fill:#fdcb26;}.cls-5{fill:#f0822f;}.cls-6{fill:#f1a529;stroke:#fff;stroke-miterlimit:10;}.cls-7{fill:#fecc2a;}</style><clipPath id="clip-path"><rect class="cls-1" width="1920" height="1240"/></clipPath></defs><g class="cls-2"><g class="cls-2"><rect class="cls-3" x="-2479.33" y="-1527.7" width="6400" height="4082.93"/><path class="cls-4" d="M2773.67,1122.8l-1589,586.74,1589,587.11,1588-587.11ZM1447.33,1689.5l1326-489.57L4099,1689.5,2773.67,2179.07Z"/></g><path class="cls-5" d="M1517,783.78,1008,949.54l509,165.75,509-165.75ZM1092.13,943.83,1517,805.48l424.61,138.35L1517,1082.16Z"/><path class="cls-6" d="M1517,695.38,1008,861.14l509,165.76,509-165.76Zm-424.83,160L1517,717.09,1941.69,855.4,1517,993.83Z"/><path class="cls-7" d="M1517,607,1008,772.68l509,165.87,508.79-165.87ZM1092.13,767,1517,628.69,1941.57,767,1517,905.33Z"/></g></svg>