<?xml version="1.0" encoding="UTF-8"?><svg id="Layer_1" xmlns="http://www.w3.org/2000/svg" viewBox="0 0 3440 258.41"><defs><style>.cls-1{opacity:.05;}</style></defs><path class="cls-1" d="M3338.58,258.41c4.64-11.69-6.94-24.12-6.94-35.18,0-16.67-18.49-32.25-25.38-48.64-9.55-22.71,12.11-52.05-196.71-61.97-53.12-2.52-104.56-4.92-159.47-3.2-48.08,1.51-94.04,9.01-144.11,6.49-118.68-5.96-41.79-36.46-132.76-46.44-108.05-11.85-348.57-2.59-423.85,10.53-80.74,14.07-89.48,33.45-149.04,48.65-98.49,25.14-307.92,7.24-356.5-12.14-50-19.95-22.98-50.85-186.5-63.44-314.16-24.17-458.4,71.58-779.38,30.18-76.91-9.92-159.75-36.16-316.2-29.21-114.49,5.09-110.44,39.31-95.21,51.09,25.09,19.38,112.08,46.69-85.89,57.7-95.96,5.34-146.42-2.34-240.07-3.44-14.08-.17-27.57-.16-40.57-.02v99.03s3338.58,0,3338.58,0Z"/><path class="cls-1" d="M3331.81,195.07c-35.58-14.93-59.62-38.7-180.1-47.21-107.12-7.57-220.54,1.37-250.35-17.6-23.12-14.72-1.2-31.24-68.7-44.56-67.84-13.39-172-25.05-307.8-20.86-143.36,4.42-225.61,14.27-273.5,30.38-30.76,10.35-106.46,33.01-223.11,30.22-144.48-3.45-161.04-28.64-282.62-33.89-159.25-6.87-173.46,26.26-295.82,21.71-71.26-2.65-127.19-32.94-169.53-41.3-64.51-12.74-186.1-15.13-271.99-2.29-96.95,14.49-139.04,38.37-324.44,23.31-70.55-5.73-154.99-28.01-260.57-22.5-87.98,4.59-106.56,27.95-122.11,37.7-23.39,14.66-24.94,39.41-188.53,40.71-38.21,.3-75.01-.46-112.63-.79v110.31s3403.47,0,3403.47,0c-6.23-9.55-17.34-19.28-18.07-28.51-.95-12.08-26.27-23.35-53.59-34.82Z"/><path class="cls-1" d="M3440,190.02c-57.8-23.15-194.6-34.17-417.49-34.2-69.96,0-144.41,3.83-209.8,1.93-90.25-2.63-113.58-17.29-151.6-27.76-44.25-12.19-86.75-22.87-201.08-25.62-100-2.41-141.62,8.02-178.06,18.21-35.23,9.85-60.62,20.02-154.74,17.81-97.03-2.28-141.45-16.11-171.74-26.95-35.84-12.83-83.95-25.19-114.03-38.35-31.9-13.96-42.26-28.53-77.31-42.49-32.7-13.02-117.03-27.88-226.49-31.56-157.81-5.3-240.03,10.47-288.95,26.93-33.38,11.23-139.84,74.4-282.6,68.6-86.09-3.5-103.42-18.52-135.9-27.56-18.25-5.08-61.44-19.33-104.38-21.92-145.99-8.78-175.56,40.3-183.12,50.33-6.48,8.6-14.74,20.63-55.43,28.04-42.13,7.67-86.35,4.99-147.65,6.93-175.76,5.57-244.43,35.19-260.41,55.73-10.85,13.93-18,27.77-31.94,41.72-9.12,9.12,10.99,19.19,13.68,28.58H3440s0-68.39,0-68.39Z"/><path class="cls-1" d="M3279.21,258.41c-3.3-14.94-20.7-30.92-60.15-44.01-45.3-15.03-190.51-23.46-330.96-26.39-129.65-2.7-222.46-.94-275.53-16.44-37.76-11.03-71.84-27.69-228.49-23.7-109.39,2.79-122.21,18.04-216.57,22.78-154.24,7.76-282.66-9.87-341.56-23.09-71.64-16.08-126.37-36.43-227.99-50.35-95.32-13.05-237.79-11.14-277.34,5.85-35.75,15.35-54.3,41.13-180.14,51.74-112.76,9.51-213.68-6.9-335.67-3.29-153.81,4.56-203.85,21.25-275.18,34.31-75.01,13.73-214.17,23.62-356.68,25.65-50.84,.72-98.76,1.15-149.19,2.91-8.16,.29-16.04,.59-23.77,.91v43.11s3279.21,0,3279.21,0Z"/><path class="cls-1" d="M3440,258.41v-33.84c-50.71-6.29-113.34-11.42-183.78-14.55-126.96-5.65-287.22-4.52-421.88-6.59-127.13-1.96-184.24-10.54-240.26-21.14-62.57-11.84-125.59-21.1-278.71-16.37-140.17,4.33-212.92,20.78-375.16,20.99-175.39,.22-294.79-19.13-342.36-33.7-29.94-9.17-134.29-40.77-282.28-25.15-123.23,13.01-86.61,49.22-322.42,51.59-93.75,.94-182.43-6.17-277.18-6.62-143.14-.68-294.79,4.84-366.6,17.83-31.66,5.73-42.59,12.45-70.06,18.34-36.25,7.78-93.87,15.09-146.35,21.85C92.13,236.31,47.83,239.92,0,243.54v14.87s3440,0,3440,0Z"/><path class="cls-1" d="M3069.6,258.41c-5.22-3.12-11.16-6.12-18.72-8.87-33.39-12.14-43.47-24.34-115.76-34.23-114.17-15.62-300.08-24.17-389.92-42.11-71.53-14.28-85.94-29.66-263.61-24.17-159.74,4.94-266.65,25.4-381.37,37.76-157.6,16.98-313.19,10.27-428.6-8.12-72.73-11.59-176.08-32.8-310.63-32.2-200.08,.89-269.73,20.19-389.93,34.88-118.86,14.52-261.58,10.55-411.45,15.56-107.72,3.6-194.44,14.57-251.86,25.72C69.37,230.08,20.45,238.32,0,246.95v11.46s3069.6,0,3069.6,0Z"/><path class="cls-1" d="M2807.46,244.97c-33.67-9.69-82.95-20.85-201.61-26.55-149.68-7.18-301.27-10.83-477.14-11.92-149.47-.92-194.44-11.72-329.64-14.49-145.59-2.99-286.31,1.65-382.71,10.39-143.41,13-152.7,36.88-431.75,35.91-107.05-.37-224.42-3.98-333.02-1.42-149.2,3.52-224.72,11.63-257.17,21.52H2864.12c-20.69-4.42-40.77-8.87-56.67-13.44Z"/></svg>