<?xml version="1.0" encoding="utf-8"?>
<!-- Generator: Adobe Illustrator 25.4.1, SVG Export Plug-In . SVG Version: 6.00 Build 0)  -->
<svg version="1.1" id="Layer_1" xmlns="http://www.w3.org/2000/svg" xmlns:xlink="http://www.w3.org/1999/xlink" x="0px" y="0px"
	 viewBox="0 0 129.4 44.9" style="enable-background:new 0 0 129.4 44.9;" xml:space="preserve">
<style type="text/css">
	.st0{fill:#3A3A3A;}
</style>
<path class="st0" d="M21.4,0c13.5,0,21.4,9.9,21.4,22.6c0,12.4-7.9,22.3-21.4,22.3S0,35,0,22.6C0,9.9,7.9,0,21.4,0 M21.4,37
	c8.6,0,11.9-7.2,11.9-14.4c0-7.5-3.2-14.7-11.9-14.7S9.6,15.1,9.6,22.6C9.6,29.8,12.8,37,21.4,37"/>
<path class="st0" d="M57,29.6c0,5.7,4.5,7.9,9.6,7.9c3.4,0,8.5-1,8.5-5.3c0-4.6-6.5-5.4-12.9-7.1s-13-4.1-13-12.2
	c0-8.8,8.4-13,16.3-13C74.6-0.1,83,3.8,83,13.7h-9.2c-0.3-5.2-4-6.5-8.6-6.5c-3,0-6.6,1.3-6.6,4.9c0,3.3,2.1,3.7,13,6.5
	c3.2,0.8,12.9,2.8,12.9,12.5c0,7.9-6.3,13.8-18.1,13.8c-9.6,0-18.7-4.7-18.6-15.3L57,29.6z"/>
<path class="st0" d="M122.3,39c-2.8,3.8-7.3,5.9-12,5.9c-13.5,0-21.4-9.9-21.4-22.3C88.9,9.9,96.8,0,110.3,0
	c8.9,0,17.3,5.4,18.4,15.1h-9.2c-1.1-4.8-4.7-7.2-9.2-7.2c-8.6,0-11.9,7.2-11.9,14.7c0,7.1,3.2,14.4,11.9,14.4
	c6.2,0,9.8-3.3,10.4-9.2h-9.6v-7h18.3V44h-6.1L122.3,39z"/>
</svg>
